<?xml version="1.0" encoding="UTF-8"?>
<svg version="1.1" xmlns="http://www.w3.org/2000/svg" width="500" height="500">
<path d="M0 0 C165 0 330 0 500 0 C500 165 500 330 500 500 C335 500 170 500 0 500 C0 335 0 170 0 0 Z " fill="#000000" transform="translate(0,0)"/>
<path d="M0 0 C1.06742432 0.00491455 2.13484863 0.0098291 3.23461914 0.01489258 C21.41104516 0.27738262 39.22621717 3.28658967 56.0625 10.3125 C56.0625 10.9725 56.0625 11.6325 56.0625 12.3125 C57.8259375 12.8075 57.8259375 12.8075 59.625 13.3125 C93.38446005 24.75906692 119.656512 54.64563873 135.6640625 85.36328125 C137.0625 88.3125 137.0625 88.3125 137.0625 90.3125 C137.7225 90.3125 138.3825 90.3125 139.0625 90.3125 C147.35194405 108.85692639 151.29480173 127.83438785 151.3125 148.125 C151.31317474 148.81813293 151.31384949 149.51126587 151.31454468 150.22540283 C151.28337289 170.39616866 148.03292628 190.03940942 139.0625 208.3125 C138.4025 208.3125 137.7425 208.3125 137.0625 208.3125 C136.69125 209.57900391 136.69125 209.57900391 136.3125 210.87109375 C130.76165219 226.15327162 119.08944654 239.50786881 107.8125 250.875 C106.80207642 251.89388306 106.80207642 251.89388306 105.77124023 252.93334961 C102.08395178 256.56683566 98.40866068 259.4730884 94.0625 262.3125 C93.26972656 263.1271875 92.47695313 263.941875 91.66015625 264.78125 C88.54336801 267.81836095 85.29977145 269.74232973 81.5 271.8125 C80.7881958 272.2041333 80.0763916 272.5957666 79.34301758 272.99926758 C63.44612947 281.61358263 46.06642007 287.47446142 28.0625 289.3125 C26.77601563 289.4878125 25.48953125 289.663125 24.1640625 289.84375 C1.82501952 292.64444202 -23.56758572 288.76391452 -43.9375 279.3125 C-43.2775 278.6525 -42.6175 277.9925 -41.9375 277.3125 C-44.05874966 276.44906176 -46.18463072 275.59699352 -48.3125 274.75 C-49.49585938 274.27433594 -50.67921875 273.79867188 -51.8984375 273.30859375 C-54.81489003 271.95805028 -54.81489003 271.95805028 -56.9375 273.3125 C-69.26820077 267.47372516 -80.10500024 258.6442706 -89.9375 249.3125 C-91.28328125 248.04599609 -91.28328125 248.04599609 -92.65625 246.75390625 C-120.30573926 219.99758869 -136.35852428 182.5528171 -137.22070312 144.14013672 C-137.39920456 126.15016716 -135.00137 109.257781 -128.9375 92.3125 C-128.2775 92.3125 -127.6175 92.3125 -126.9375 92.3125 C-126.82535156 91.78785156 -126.71320313 91.26320313 -126.59765625 90.72265625 C-123.02553925 76.69100712 -114.84511684 64.49880952 -105.9375 53.3125 C-105.2775 52.3225 -104.6175 51.3325 -103.9375 50.3125 C-103.2775 50.3125 -102.6175 50.3125 -101.9375 50.3125 C-101.60298828 49.49458984 -101.60298828 49.49458984 -101.26171875 48.66015625 C-92.53952994 33.19692476 -72.27374606 21.97116789 -56.9375 14.3125 C-56.2775 14.3125 -55.6175 14.3125 -54.9375 14.3125 C-54.9375 13.6525 -54.9375 12.9925 -54.9375 12.3125 C-29.27253129 1.39123672 -29.27253129 1.39123672 -16.98828125 2.3671875 C-14.89328037 2.46587157 -14.89328037 2.46587157 -13.11572266 1.32788086 C-9.01770048 -0.58241663 -4.4483994 -0.02402282 0 0 Z " fill="#010100" transform="translate(242.9375,109.6875)"/>
<path d="M0 0 C1.20317001 3.48031057 0.76852151 5.58376255 -0.3125 9.0625 C-3.34157925 18.88853757 -4.3657772 28.43392295 -4.3125 38.6875 C-4.30686035 39.83089844 -4.3012207 40.97429687 -4.29541016 42.15234375 C-3.86844001 72.04870884 8.18771076 99.46639539 28.625 121.0625 C36.72258725 128.83276826 46.25313708 131.1110073 57.21875 131.6328125 C58.33376892 131.69515579 58.33376892 131.69515579 59.47131348 131.75875854 C61.81388356 131.88808909 64.15684809 132.00673213 66.5 132.125 C68.10160104 132.21152923 69.7031642 132.29876249 71.3046875 132.38671875 C75.20273508 132.59927679 79.10117374 132.80226109 83 133 C83 133.33 83 133.66 83 134 C79.04 134 75.08 134 71 134 C71 134.66 71 135.32 71 136 C71.71285156 135.98839844 72.42570312 135.97679687 73.16015625 135.96484375 C78.56325366 135.91393974 83.67828475 136.05391729 89 137 C89.33 136.34 89.66 135.68 90 135 C88.02 135 86.04 135 84 135 C84 134.67 84 134.34 84 134 C89.59554553 133.70894432 93.77000574 134.62367726 98.9375 136.5 C99.62134766 136.73847656 100.30519531 136.97695313 101.00976562 137.22265625 C102.67658097 137.80545882 104.33880316 138.40137051 106 139 C105.01 139.33 104.02 139.66 103 140 C102.34 139.67 101.68 139.34 101 139 C101 139.66 101 140.32 101 141 C102.98 141.99 102.98 141.99 105 143 C103.845 142.731875 102.69 142.46375 101.5 142.1875 C99.66735762 141.78847989 97.83391021 141.39315199 96 141 C94.28876953 140.62101562 94.28876953 140.62101562 92.54296875 140.234375 C81.70736231 137.99479677 71.04754605 137.328257 60 137 C60.57741943 137.03963867 61.15483887 137.07927734 61.74975586 137.12011719 C71.86506504 137.84543004 81.86265731 138.65617253 91.75 141 C92.45761475 141.1659668 93.16522949 141.33193359 93.89428711 141.50292969 C96.9361239 142.27236436 98.74307851 142.74307851 101 145 C100.13689209 144.81171631 100.13689209 144.81171631 99.25634766 144.61962891 C92.33122682 143.16553169 85.39868763 142.21135649 78.375 141.375 C77.27542969 141.2409375 76.17585938 141.106875 75.04296875 140.96875 C72.36237342 140.64241665 69.68140902 140.31956606 67 140 C70.27263834 140.67052723 73.54555812 141.2672288 76.84375 141.796875 C87.42735839 143.55987396 97.19517608 145.48608106 107 150 C107 150.99 107 151.98 107 153 C101.72684667 152.5547115 96.98229776 151.91626837 92 150 C92 150.66 92 151.32 92 152 C92.81791016 152.14695312 92.81791016 152.14695312 93.65234375 152.296875 C99.51809047 153.45999743 104.63118344 155.38539903 110 158 C110 157.34 110 156.68 110 156 C117.22857143 154.74285714 117.22857143 154.74285714 121 156 C119.6910428 152.87802522 119.6910428 152.87802522 117 151 C115.95191959 149.02477154 114.9479589 147.02518491 114 145 C118.09928482 146.61043332 120.76118257 149.57873161 123.75 152.6875 C139.60694167 168.82452352 157.26696109 183.62070401 180.875 184.4375 C188.34869484 184.26426866 194.97527525 182.45107302 202 180 C203.39605469 179.51466797 203.39605469 179.51466797 204.8203125 179.01953125 C209.77324378 177.16407534 214.06945138 174.88589565 218.40625 171.85546875 C218.9321875 171.57316406 219.458125 171.29085937 220 171 C220.66 171.33 221.32 171.66 222 172 C203.08055516 185.74489582 180.37544976 194.99814989 157 197 C155.72125 197.17273438 154.4425 197.34546875 153.125 197.5234375 C130.78676885 200.34714235 105.3690008 196.45099068 85 187 C85.66 186.34 86.32 185.68 87 185 C84.87875034 184.13656176 82.75286928 183.28449352 80.625 182.4375 C79.44164062 181.96183594 78.25828125 181.48617187 77.0390625 180.99609375 C74.12260997 179.64555028 74.12260997 179.64555028 72 181 C59.66929923 175.16122516 48.83249976 166.3317706 39 157 C37.65421875 155.73349609 37.65421875 155.73349609 36.28125 154.44140625 C8.63176074 127.68508869 -7.42102428 90.2403171 -8.28320312 51.82763672 C-8.46170456 33.83766716 -6.06387 16.945281 0 0 Z " fill="#3F2C12" transform="translate(114,202)"/>
<path d="M0 0 C4.29 0 8.58 0 13 0 C13.89307861 2.61977783 13.89307861 2.61977783 14.80419922 5.29248047 C16.7710916 11.05770405 18.74339004 16.82105531 20.71940422 22.58315849 C21.91744955 26.07733417 23.11330113 29.57222893 24.30419922 33.06884766 C25.45321423 36.44223087 26.60791281 39.81361824 27.76660538 43.18368912 C28.2080159 44.47080953 28.64736178 45.7586399 29.08462143 47.04717636 C29.69664121 48.84955204 30.31664147 50.64921191 30.93701172 52.44873047 C31.28786835 53.47465302 31.63872498 54.50057556 32.00021362 55.55758667 C32.86756038 58.12524507 32.86756038 58.12524507 35 60 C41.93 40.2 48.86 20.4 56 0 C60.62 0 65.24 0 70 0 C69.01 1.65 68.02 3.3 67 5 C66.68111548 7.85591605 66.51224653 10.50672929 66.48828125 13.36328125 C66.46135445 14.55125557 66.46135445 14.55125557 66.43388367 15.76322937 C66.37993162 18.27959962 66.34593437 20.79578185 66.3125 23.3125 C66.27931349 25.02411462 66.24482259 26.73570448 66.20898438 28.44726562 C66.12421418 32.63137442 66.05733157 36.81542893 66 41 C67.90471069 40.9851355 67.90471069 40.9851355 69.84790039 40.9699707 C78.23307864 40.90453216 84.92049933 44.84219802 92 49 C91.01 51.97 90.02 54.94 89 58 C85.59723568 56.86574523 84.8894922 55.91594551 82.6875 53.1875 C77.83240382 47.49777513 73.18898999 44.7253576 66 43 C66 45.97 66 48.94 66 52 C56.42188677 42.42188677 56.09198499 24.92504976 55.97265625 12.36328125 C55.97724529 10.90883285 55.98450081 9.45437306 56 8 C54.64825112 11.91003018 53.29738525 15.82036407 51.94726562 19.73095703 C51.48981388 21.05558094 51.03213915 22.38012787 50.57421875 23.70458984 C47.6650146 32.11959044 44.79429503 40.54597303 42 49 C42.81380127 48.32457153 42.81380127 48.32457153 43.64404297 47.63549805 C48.2062082 43.89484768 51.1662941 42.47622089 57 42 C57.495 41.01 57.495 41.01 58 40 C58.8394882 42.10171867 59.67139656 44.20646625 60.5 46.3125 C60.9640625 47.48425781 61.428125 48.65601563 61.90625 49.86328125 C63 53 63 53 63 56 C63.99 56 64.98 56 66 56 C66.18175781 56.55429688 66.36351562 57.10859375 66.55078125 57.6796875 C66.80214844 58.40414062 67.05351562 59.12859375 67.3125 59.875 C67.55613281 60.59429687 67.79976563 61.31359375 68.05078125 62.0546875 C68.96335547 64.33994905 68.96335547 64.33994905 72 66 C71.01 66.495 71.01 66.495 70 67 C70.79664063 67.24234375 71.59328125 67.4846875 72.4140625 67.734375 C86.69400864 72.25114628 86.69400864 72.25114628 90.375 78.75 C92.99750711 84.71124516 92.71896333 89.70422387 90.5 95.6875 C88.1436887 100.51668924 84.88669798 102.92710767 80 105 C68.79609849 108.74345233 57.59260491 108.14028734 47 103 C46.11699219 102.66871094 45.23398438 102.33742188 44.32421875 101.99609375 C41.3669446 100.60254155 39.8795042 99.70121981 38 97 C36.90676279 91.40245601 37.49157686 85.63659235 38 80 C40 81 40 81 40.7890625 82.96875 C41.06492188 83.8040625 41.34078125 84.639375 41.625 85.5 C44.48441893 92.86485023 49.14049227 98.88516841 56.25 102.5625 C63.36208452 105.22340059 70.99851074 105.10870641 78.0625 102.375 C81.0530386 100.83638956 82.03580171 99.95009459 84.0625 97.125 C85.28676978 93.04410072 86.04750421 90.24465188 84.1796875 86.2421875 C78.90671761 78.58145766 68.5128405 77.07253568 59.96875 75.015625 C50.41873876 72.70172479 43.82214989 70.13698057 38 62 C37.34 63.32 36.68 64.64 36 66 C32.37 66 28.74 66 25 66 C24.56131592 64.70900391 24.12263184 63.41800781 23.6706543 62.08789062 C22.03373128 57.27170615 20.39515933 52.45608401 18.75610352 47.640625 C18.0486262 45.56134964 17.34158866 43.48192459 16.63500977 41.40234375 C15.61591953 38.40324521 14.59521857 35.40469891 13.57421875 32.40625 C13.26159592 31.48509399 12.94897308 30.56393799 12.62687683 29.61486816 C10.84006896 24.37320528 8.97224609 19.17483579 7 14 C6.94935511 20.63855742 6.91428977 27.27706514 6.89013672 33.91577148 C6.88006942 36.17490501 6.86641462 38.43402547 6.84912109 40.69311523 C6.82490492 43.93736999 6.81352425 47.18145271 6.8046875 50.42578125 C6.79436493 51.43836502 6.78404236 52.45094879 6.77340698 53.49421692 C6.77318039 54.90534004 6.77318039 54.90534004 6.77294922 56.3449707 C6.768508 57.17325882 6.76406677 58.00154694 6.75949097 58.85493469 C6.8674034 61.29785226 6.8674034 61.29785226 9 64 C9.99 64.66 10.98 65.32 12 66 C7.38 66 2.76 66 -2 66 C-0.68 64.68 0.64 63.36 2 62 C3.00489816 58.98530553 3.13817125 56.93461805 3.16113281 53.78173828 C3.17074036 52.71698273 3.1803479 51.65222717 3.19024658 50.5552063 C3.1966214 48.83018387 3.1966214 48.83018387 3.203125 47.0703125 C3.20882507 45.88782928 3.21452515 44.70534607 3.22039795 43.48703003 C3.22984965 40.98371272 3.2363826 38.48038297 3.24023438 35.97705078 C3.24994362 32.14724039 3.2809678 28.31796574 3.3125 24.48828125 C3.31902969 22.05729486 3.32428029 19.62630462 3.328125 17.1953125 C3.3404718 16.04934601 3.3528186 14.90337952 3.36553955 13.72268677 C3.36253845 12.65162689 3.35953735 11.58056702 3.35644531 10.47705078 C3.36009094 9.53789825 3.36373657 8.59874573 3.36749268 7.63113403 C3.09337717 4.41719724 3.09337717 4.41719724 0 0 Z " fill="#E6BF5A" transform="translate(195,199)"/>
<path d="M0 0 C1.20317001 3.48031057 0.76852151 5.58376255 -0.3125 9.0625 C-3.34157925 18.88853757 -4.3657772 28.43392295 -4.3125 38.6875 C-4.30686035 39.83089844 -4.3012207 40.97429687 -4.29541016 42.15234375 C-3.89754908 70.0104978 6.58577049 94.63339417 24 116 C25.11248598 117.49384034 26.21798781 118.99294091 27.3125 120.5 C29.64181024 123.63229183 32.15870474 126.32583975 35 129 C34.01 129 33.02 129 32 129 C32.474375 129.556875 32.94875 130.11375 33.4375 130.6875 C35.16358116 133.24210011 35.55723541 134.97444195 36 138 C36.185625 138.928125 36.37125 139.85625 36.5625 140.8125 C36.706875 141.534375 36.85125 142.25625 37 143 C36.01 143.33 35.02 143.66 34 144 C36.89971351 146.41642792 39.60856696 148.36275647 43 150 C43.99 150.99 43.99 150.99 45 152 C44.34 152.33 43.68 152.66 43 153 C45.84986575 155.22221682 45.84986575 155.22221682 49.19140625 155.40234375 C53.60866739 156.09551396 56.966235 157.59440498 60.9375 159.5625 C61.62134766 159.89185547 62.30519531 160.22121094 63.00976562 160.56054688 C64.67731871 161.36517039 66.33926839 162.1813897 68 163 C67.67 163.66 67.34 164.32 67 165 C67.59014893 165.23187012 68.18029785 165.46374023 68.78833008 165.70263672 C71.46449898 166.75646216 74.138507 167.81566624 76.8125 168.875 C77.74126953 169.23980469 78.67003906 169.60460937 79.62695312 169.98046875 C80.51962891 170.33496094 81.41230469 170.68945312 82.33203125 171.0546875 C83.56530151 171.54171143 83.56530151 171.54171143 84.82348633 172.03857422 C87 173 87 173 90 175 C85.00145212 174.46823959 80.71508871 173.31449185 76.015625 171.5234375 C73.81914355 170.75776905 73.81914355 170.75776905 71 172 C68.63477442 171.07796291 66.29598193 170.08301035 64 169 C67.96 170.98 71.92 172.96 76 175 C73 176 73 176 70 175 C72.64 176.32 75.28 177.64 78 179 C74 181 74 181 71.2890625 180.46484375 C67.01483739 178.56123993 63.24933696 176.17300265 59.375 173.5625 C58.18293945 172.76223389 58.18293945 172.76223389 56.96679688 171.94580078 C50.01262493 167.1806445 43.98380885 161.93116537 38 156 C37.14148438 155.19046875 36.28296875 154.3809375 35.3984375 153.546875 C8.07651829 127.32459959 -7.43833683 89.46899037 -8.28320312 51.82763672 C-8.46170456 33.83766716 -6.06387 16.945281 0 0 Z " fill="#BC8B3D" transform="translate(114,202)"/>
<path d="M0 0 C4.09928482 1.61043332 6.76118257 4.57873161 9.75 7.6875 C25.60694167 23.82452352 43.26696109 38.62070401 66.875 39.4375 C74.34869484 39.26426866 80.97527525 37.45107302 88 35 C88.93070312 34.67644531 89.86140625 34.35289062 90.8203125 34.01953125 C95.77324378 32.16407534 100.06945138 29.88589565 104.40625 26.85546875 C104.9321875 26.57316406 105.458125 26.29085938 106 26 C106.66 26.33 107.32 26.66 108 27 C89.08055516 40.74489582 66.37544976 49.99814989 43 52 C41.72125 52.17273438 40.4425 52.34546875 39.125 52.5234375 C16.78676885 55.34714235 -8.6309992 51.45099068 -29 42 C-28.34 41.34 -27.68 40.68 -27 40 C-31.455 38.02 -31.455 38.02 -36 36 C-33 35 -33 35 -31 35 C-29.515 34.505 -29.515 34.505 -28 34 C-25.3125 34.9375 -25.3125 34.9375 -23 36 C-23.99 36.66 -24.98 37.32 -26 38 C-17.39630728 40.9375631 -8.814299 43.74603165 0 46 C0 46.33 0 46.66 0 47 C-1.41702513 46.85769192 -2.8336096 46.71099254 -4.25 46.5625 C-5.03890625 46.48128906 -5.8278125 46.40007812 -6.640625 46.31640625 C-9 46 -9 46 -11.234375 45.40234375 C-11.81703125 45.26957031 -12.3996875 45.13679688 -13 45 C-13.33 45.33 -13.66 45.66 -14 46 C-7.67551301 47.06965872 -1.35583327 48.13329546 5 49 C3.68 48.34 2.36 47.68 1 47 C4.96 47.33 8.92 47.66 13 48 C11.68 47.34 10.36 46.68 9 46 C10.98 46 12.96 46 15 46 C10.05 44.68 5.1 43.36 0 42 C1.98 41.505 1.98 41.505 4 41 C0.7 39.68 -2.6 38.36 -6 37 C-2.66242976 35.88747659 -2.04960807 36.07821677 1.1328125 37.1796875 C1.93976563 37.44910156 2.74671875 37.71851563 3.578125 37.99609375 C5.25268917 38.57397249 6.92717078 39.15209054 8.6015625 39.73046875 C18.19704511 42.98692094 18.19704511 42.98692094 28 42 C27.01 41.67 26.02 41.34 25 41 C24.38125 40.505 23.7625 40.01 23.125 39.5 C20.72402703 37.80519555 18.86901777 37.46524613 16 37 C15.67 36.67 15.34 36.34 15 36 C13.67479497 35.31731862 12.34187818 34.6492959 11 34 C12.32 33.34 13.64 32.68 15 32 C13.68 31.01 12.36 30.02 11 29 C12.6875 27.375 12.6875 27.375 15 26 C17.75 26.8125 17.75 26.8125 20 28 C19.67 28.66 19.34 29.32 19 30 C19.99 30 20.98 30 22 30 C22.77242269 28.16299211 22.77242269 28.16299211 23 26 C21.68732044 24.27056525 21.68732044 24.27056525 20 23 C19.67 22.67 19.34 22.34 19 22 C18.01 21.34 17.02 20.68 16 20 C16 19.34 16 18.68 16 18 C11.69677317 16.53060547 7.37702633 15.22556737 3 14 C3.495 14.99 3.495 14.99 4 16 C1.525 15.01 1.525 15.01 -1 14 C-1 14.66 -1 15.32 -1 16 C-4.91211733 14.84414715 -7.8745041 13.64465038 -11 11 C-6.25 11.875 -6.25 11.875 -4 13 C-4 12.34 -4 11.68 -4 11 C3.22857143 9.74285714 3.22857143 9.74285714 7 11 C5.6910428 7.87802522 5.6910428 7.87802522 3 6 C1.95191959 4.02477154 0.9479589 2.02518491 0 0 Z " fill="#57320D" transform="translate(228,347)"/>
<path d="M0 0 C0.4125 0.38671875 0.825 0.7734375 1.25 1.171875 C10.05410916 9.11129487 19.49732224 12.0750414 31.21875 12.6328125 C31.96209595 12.67437469 32.70544189 12.71593689 33.47131348 12.75875854 C35.81388356 12.88808909 38.15684809 13.00673213 40.5 13.125 C42.10160104 13.21152923 43.7031642 13.29876249 45.3046875 13.38671875 C49.20273508 13.59927679 53.10117374 13.80226109 57 14 C57 14.33 57 14.66 57 15 C53.04 15 49.08 15 45 15 C45 15.66 45 16.32 45 17 C45.71285156 16.98839844 46.42570312 16.97679687 47.16015625 16.96484375 C52.56325366 16.91393974 57.67828475 17.05391729 63 18 C63.33 17.34 63.66 16.68 64 16 C62.02 16 60.04 16 58 16 C58 15.67 58 15.34 58 15 C63.59554553 14.70894432 67.77000574 15.62367726 72.9375 17.5 C73.62134766 17.73847656 74.30519531 17.97695313 75.00976562 18.22265625 C76.67658097 18.80545882 78.33880316 19.40137051 80 20 C78.515 20.495 78.515 20.495 77 21 C76.34 20.67 75.68 20.34 75 20 C75 20.66 75 21.32 75 22 C76.32 22.66 77.64 23.32 79 24 C77.845 23.731875 76.69 23.46375 75.5 23.1875 C73.66735762 22.78847989 71.83391021 22.39315199 70 22 C68.85917969 21.74734375 67.71835938 21.4946875 66.54296875 21.234375 C55.70736231 18.99479677 45.04754605 18.328257 34 18 C34.57741943 18.03963867 35.15483887 18.07927734 35.74975586 18.12011719 C45.86506504 18.84543004 55.86265731 19.65617253 65.75 22 C66.45761475 22.1659668 67.16522949 22.33193359 67.89428711 22.50292969 C70.9361239 23.27236436 72.74307851 23.74307851 75 26 C74.13689209 25.81171631 74.13689209 25.81171631 73.25634766 25.61962891 C66.33122682 24.16553169 59.39868763 23.21135649 52.375 22.375 C51.27542969 22.2409375 50.17585938 22.106875 49.04296875 21.96875 C46.36237342 21.64241665 43.68140902 21.31956606 41 21 C44.27263834 21.67052723 47.54555812 22.2672288 50.84375 22.796875 C61.42735839 24.55987396 71.19517608 26.48608106 81 31 C81 31.99 81 32.98 81 34 C75.72684667 33.5547115 70.98229776 32.91626837 66 31 C66 31.66 66 32.32 66 33 C66.93972656 33.18175781 66.93972656 33.18175781 67.8984375 33.3671875 C68.71570313 33.53476562 69.53296875 33.70234375 70.375 33.875 C71.18710938 34.03742188 71.99921875 34.19984375 72.8359375 34.3671875 C75 35 75 35 77 37 C71.56449344 35.83524859 66.19138499 34.52914881 60.8125 33.125 C50.6567326 30.51152952 40.32873865 28.77668015 30 27 C31.10923828 27.25692627 32.21847656 27.51385254 33.36132812 27.77856445 C37.50746156 28.74041855 41.65190662 29.70938429 45.79589844 30.68041992 C47.58386252 31.0983541 49.37226864 31.51440218 51.16113281 31.9284668 C53.74404749 32.52668366 56.32525471 33.13184356 58.90625 33.73828125 C59.69616333 33.91966141 60.48607666 34.10104156 61.29992676 34.28791809 C66.38308103 35.49126483 71.14191962 37.07660662 76 39 C72.51519614 40.16160129 71.36422114 39.77692595 67.88671875 38.8203125 C66.88576172 38.55089844 65.88480469 38.28148437 64.85351562 38.00390625 C63.80873047 37.71386719 62.76394531 37.42382812 61.6875 37.125 C59.62956324 36.56269414 57.57098553 36.00272788 55.51171875 35.4453125 C54.59865967 35.19281738 53.68560059 34.94032227 52.74487305 34.68017578 C49.86373922 33.96623476 46.92788634 33.48798106 44 33 C54.89 35.97 54.89 35.97 66 39 C64.68 39.33 63.36 39.66 62 40 C62 40.66 62 41.32 62 42 C64.97 42.66 67.94 43.32 71 44 C66.72424337 45.06893916 65.44075443 44.80384576 61.359375 43.56640625 C60.28945312 43.24736328 59.21953125 42.92832031 58.1171875 42.59960938 C56.45042969 42.08624023 56.45042969 42.08624023 54.75 41.5625 C53.62335938 41.22412109 52.49671875 40.88574219 51.3359375 40.53710938 C48.5544639 39.70031011 45.77613344 38.85431674 43 38 C46.04020487 39.56530994 48.96079397 40.67286141 52.25 41.625 C53.14203125 41.88539063 54.0340625 42.14578125 54.953125 42.4140625 C55.62859375 42.60742188 56.3040625 42.80078125 57 43 C55.02 43.495 55.02 43.495 53 44 C53.598125 44.28875 54.19625 44.5775 54.8125 44.875 C57 46 57 46 60 48 C54.12815387 47.41753805 49.1125283 45.74637675 43.625 43.625 C38.80420065 41.78998606 33.98467493 39.95963146 29.109375 38.2734375 C28.40006836 38.02770996 27.69076172 37.78198242 26.95996094 37.52880859 C24.79526054 36.85347382 24.79526054 36.85347382 21.625 37 C19 37 19 37 17.125 35.625 C16 34 16 34 16 32 C14.02053408 30.63636792 12.0180755 29.30581356 10 28 C8.125 26.25 8.125 26.25 7 25 C7.33 24.34 7.66 23.68 8 23 C8.66 23 9.32 23 10 23 C8.46109249 15.70217675 8.46109249 15.70217675 4 10 C4.33 9.34 4.66 8.68 5 8 C5.99 8.66 6.98 9.32 8 10 C7.236875 9.236875 6.47375 8.47375 5.6875 7.6875 C4.800625 6.800625 3.91375 5.91375 3 5 C2.401875 4.443125 1.80375 3.88625 1.1875 3.3125 C0 2 0 2 0 0 Z " fill="#5D4B25" transform="translate(140,321)"/>
<path d="M0 0 C4.29 0 8.58 0 13 0 C13.59014893 1.73604492 14.18029785 3.47208984 14.78833008 5.26074219 C16.74205868 11.00240855 18.70252749 16.74173806 20.66759205 22.47953415 C21.858513 25.95770993 23.04672705 29.43676132 24.22875977 32.91796875 C25.37004008 36.27882836 26.51842372 39.63718302 27.67172813 42.99393463 C28.32301208 44.895541 28.96695629 46.79965604 29.61079407 48.70379639 C30.01098251 49.86469788 30.41117096 51.02559937 30.82348633 52.22167969 C31.17212234 53.24316101 31.52075836 54.26464233 31.87995911 55.31707764 C32.87467811 58.02777667 32.87467811 58.02777667 34.6360321 60.11114502 C36 62 36 62 36 66 C32.37 66 28.74 66 25 66 C24.56131592 64.70900391 24.12263184 63.41800781 23.6706543 62.08789062 C22.03373128 57.27170615 20.39515933 52.45608401 18.75610352 47.640625 C18.0486262 45.56134964 17.34158866 43.48192459 16.63500977 41.40234375 C15.61591953 38.40324521 14.59521857 35.40469891 13.57421875 32.40625 C13.26159592 31.48509399 12.94897308 30.56393799 12.62687683 29.61486816 C10.84006896 24.37320528 8.97224609 19.17483579 7 14 C6.94935511 20.63855742 6.91428977 27.27706514 6.89013672 33.91577148 C6.88006942 36.17490501 6.86641462 38.43402547 6.84912109 40.69311523 C6.82490492 43.93736999 6.81352425 47.18145271 6.8046875 50.42578125 C6.79436493 51.43836502 6.78404236 52.45094879 6.77340698 53.49421692 C6.77318039 54.90534004 6.77318039 54.90534004 6.77294922 56.3449707 C6.768508 57.17325882 6.76406677 58.00154694 6.75949097 58.85493469 C6.8674034 61.29785226 6.8674034 61.29785226 9 64 C9.99 64.66 10.98 65.32 12 66 C7.38 66 2.76 66 -2 66 C-0.68 64.68 0.64 63.36 2 62 C3.00489816 58.98530553 3.13817125 56.93461805 3.16113281 53.78173828 C3.17074036 52.71698273 3.1803479 51.65222717 3.19024658 50.5552063 C3.1966214 48.83018387 3.1966214 48.83018387 3.203125 47.0703125 C3.20882507 45.88782928 3.21452515 44.70534607 3.22039795 43.48703003 C3.22984965 40.98371272 3.2363826 38.48038297 3.24023438 35.97705078 C3.24994362 32.14724039 3.2809678 28.31796574 3.3125 24.48828125 C3.31902969 22.05729486 3.32428029 19.62630462 3.328125 17.1953125 C3.3404718 16.04934601 3.3528186 14.90337952 3.36553955 13.72268677 C3.36253845 12.65162689 3.35953735 11.58056702 3.35644531 10.47705078 C3.36009094 9.53789825 3.36373657 8.59874573 3.36749268 7.63113403 C3.09337717 4.41719724 3.09337717 4.41719724 0 0 Z " fill="#E4BE59" transform="translate(195,199)"/>
<path d="M0 0 C1.20317001 3.48031057 0.76852151 5.58376255 -0.3125 9.0625 C-3.34157925 18.88853757 -4.3657772 28.43392295 -4.3125 38.6875 C-4.30686035 39.83089844 -4.3012207 40.97429687 -4.29541016 42.15234375 C-4.06874092 58.02367913 -1.02271948 74.98623057 6.6875 89.0859375 C8 92 8 92 7.98046875 95.42578125 C8.00369415 99.67602875 9.33649565 102.54163281 11.3125 106.1875 C11.62123047 106.79013672 11.92996094 107.39277344 12.24804688 108.01367188 C13.92950002 111.23852202 15.80675443 114.11118226 18 117 C19.00484883 119.33124929 20.00522247 121.66443537 21 124 C21.66 124.66 22.32 125.32 23 126 C23.37400786 128.32716 23.70764733 130.66117862 24 133 C24.33 133.66 24.66 134.32 25 135 C24.34 135 23.68 135 23 135 C23 135.66 23 136.32 23 137 C15.79835076 134.59945025 11.14558945 121.57585016 7.8125 114.9375 C6.5201827 112.30160762 5.25539331 109.65363686 4 107 C3.2884375 105.52466797 3.2884375 105.52466797 2.5625 104.01953125 C-11.92811154 71.91377006 -11.74104 32.80994181 0 0 Z " fill="#C4822F" transform="translate(114,202)"/>
<path d="M0 0 C0.4125 0.38671875 0.825 0.7734375 1.25 1.171875 C10.05410916 9.11129487 19.49732224 12.0750414 31.21875 12.6328125 C31.96209595 12.67437469 32.70544189 12.71593689 33.47131348 12.75875854 C35.81388356 12.88808909 38.15684809 13.00673213 40.5 13.125 C42.10160104 13.21152923 43.7031642 13.29876249 45.3046875 13.38671875 C49.20273508 13.59927679 53.10117374 13.80226109 57 14 C57 14.33 57 14.66 57 15 C53.04 15 49.08 15 45 15 C45 15.66 45 16.32 45 17 C45.71285156 16.98839844 46.42570312 16.97679687 47.16015625 16.96484375 C52.56325366 16.91393974 57.67828475 17.05391729 63 18 C63.33 17.34 63.66 16.68 64 16 C62.02 16 60.04 16 58 16 C58 15.67 58 15.34 58 15 C63.59554553 14.70894432 67.77000574 15.62367726 72.9375 17.5 C73.62134766 17.73847656 74.30519531 17.97695313 75.00976562 18.22265625 C76.67658097 18.80545882 78.33880316 19.40137051 80 20 C78.515 20.495 78.515 20.495 77 21 C76.34 20.67 75.68 20.34 75 20 C75 20.66 75 21.32 75 22 C76.32 22.66 77.64 23.32 79 24 C77.845 23.731875 76.69 23.46375 75.5 23.1875 C73.66735762 22.78847989 71.83391021 22.39315199 70 22 C68.85917969 21.74734375 67.71835938 21.4946875 66.54296875 21.234375 C55.70736231 18.99479677 45.04754605 18.328257 34 18 C34.57741943 18.03963867 35.15483887 18.07927734 35.74975586 18.12011719 C45.86506504 18.84543004 55.86265731 19.65617253 65.75 22 C66.45761475 22.1659668 67.16522949 22.33193359 67.89428711 22.50292969 C70.9361239 23.27236436 72.74307851 23.74307851 75 26 C74.13689209 25.81171631 74.13689209 25.81171631 73.25634766 25.61962891 C66.33122682 24.16553169 59.39868763 23.21135649 52.375 22.375 C51.27542969 22.2409375 50.17585938 22.106875 49.04296875 21.96875 C46.36237342 21.64241665 43.68140902 21.31956606 41 21 C44.27263834 21.67052723 47.54555812 22.2672288 50.84375 22.796875 C61.42735839 24.55987396 71.19517608 26.48608106 81 31 C81 31.99 81 32.98 81 34 C77.46884434 33.3764562 74.10740419 32.43784283 70.68188477 31.38720703 C61.27266979 28.55826439 51.73825035 26.74592008 42.0625 25.125 C41.38921661 25.00991089 40.71593323 24.89482178 40.02224731 24.77624512 C38.09056675 24.44853327 36.15663678 24.13416622 34.22265625 23.8203125 C33.09609619 23.63742676 31.96953613 23.45454102 30.80883789 23.26611328 C27.92140828 22.80158783 27.92140828 22.80158783 25 24 C22.8125 23.5625 22.8125 23.5625 21 23 C20.67 23.66 20.34 24.32 20 25 C18.68 24.34 17.36 23.68 16 23 C16.33 21.68 16.66 20.36 17 19 C15.02 18.34 13.04 17.68 11 17 C10.34 17.66 9.68 18.32 9 19 C8.731875 18.071875 8.46375 17.14375 8.1875 16.1875 C7.08851629 13.23759634 6.37581439 11.94384814 4 10 C4.33 9.34 4.66 8.68 5 8 C5.99 8.66 6.98 9.32 8 10 C7.236875 9.236875 6.47375 8.47375 5.6875 7.6875 C4.800625 6.800625 3.91375 5.91375 3 5 C2.401875 4.443125 1.80375 3.88625 1.1875 3.3125 C0 2 0 2 0 0 Z " fill="#504120" transform="translate(140,321)"/>
<path d="M0 0 C4.62 0 9.24 0 14 0 C12.515 2.475 12.515 2.475 11 5 C10.68111548 7.85591605 10.51224653 10.50672929 10.48828125 13.36328125 C10.47033005 14.15526413 10.45237885 14.94724701 10.43388367 15.76322937 C10.37993162 18.27959962 10.34593437 20.79578185 10.3125 23.3125 C10.27931349 25.02411462 10.24482259 26.73570448 10.20898438 28.44726562 C10.12421418 32.63137442 10.05733157 36.81542893 10 41 C11.90471069 40.9851355 11.90471069 40.9851355 13.84790039 40.9699707 C22.23307864 40.90453216 28.92049933 44.84219802 36 49 C35.01 51.97 34.02 54.94 33 58 C29.59723568 56.86574523 28.8894922 55.91594551 26.6875 53.1875 C21.83240382 47.49777513 17.18898999 44.7253576 10 43 C10 45.97 10 48.94 10 52 C-1.22923001 40.77076999 0.07328793 20.775589 -0.02734375 6.11328125 C-0.01832031 4.09589844 -0.00929687 2.07851562 0 0 Z " fill="#ECC55D" transform="translate(251,199)"/>
<path d="M0 0 C3.37462715 0.54723683 5.08235 1.0549 8 3 C7.01 3.33 6.02 3.66 5 4 C13.60369272 6.9375631 22.185701 9.74603165 31 12 C31 12.33 31 12.66 31 13 C29.58297487 12.85769192 28.1663904 12.71099254 26.75 12.5625 C25.56664062 12.44068359 25.56664062 12.44068359 24.359375 12.31640625 C22 12 22 12 19.765625 11.40234375 C19.18296875 11.26957031 18.6003125 11.13679688 18 11 C17.67 11.33 17.34 11.66 17 12 C23.32448699 13.06965872 29.64416673 14.13329546 36 15 C34.68 14.34 33.36 13.68 32 13 C35.96 13.33 39.92 13.66 44 14 C42.68 13.34 41.36 12.68 40 12 C41.98 12 43.96 12 46 12 C41.05 10.68 36.1 9.36 31 8 C32.32 7.67 33.64 7.34 35 7 C31.7 5.68 28.4 4.36 25 3 C28.33757024 1.88747659 28.95039193 2.07821677 32.1328125 3.1796875 C33.34324219 3.58380859 33.34324219 3.58380859 34.578125 3.99609375 C36.25268917 4.57397249 37.92717078 5.15209054 39.6015625 5.73046875 C48.85079552 8.81842471 56.50824361 9.17272598 66.1796875 7.9609375 C69 8 69 8 70.8828125 9.4765625 C71.25148438 9.97929687 71.62015625 10.48203125 72 11 C70.02 11.66 68.04 12.32 66 13 C66.96421875 13.03738281 67.9284375 13.07476562 68.921875 13.11328125 C70.81679688 13.21189453 70.81679688 13.21189453 72.75 13.3125 C74.62945312 13.39951172 74.62945312 13.39951172 76.546875 13.48828125 C80.03076463 14.00455901 81.47889796 14.6253256 84 17 C56.34874244 20.62215304 27.80995832 19.97553468 2 8 C2.66 7.34 3.32 6.68 4 6 C-0.455 4.02 -0.455 4.02 -5 2 C-2 1 -2 1 0 1 C0 0.67 0 0.34 0 0 Z " fill="#5E370E" transform="translate(197,381)"/>
<path d="M0 0 C7.45554011 -0.0977657 14.82010432 0.12287094 22.25 0.75 C23.24201416 0.83362793 24.23402832 0.91725586 25.25610352 1.00341797 C33.49571083 1.78445504 41.13202064 3.43948855 49 6 C48.34 5.67 47.68 5.34 47 5 C47 4.34 47 3.68 47 3 C53.22417879 3.90854026 56.83941544 4.9568672 61 10 C61.66 10.66 62.32 11.32 63 12 C63 12.99 63 13.98 63 15 C63.9590625 15.37125 63.9590625 15.37125 64.9375 15.75 C67 17 67 17 67.75 19.125 C67.8325 19.74375 67.915 20.3625 68 21 C65 21 65 21 62.4375 20.4375 C60.00235139 19.74957739 60.00235139 19.74957739 58 21 C57.34 20.67 56.68 20.34 56 20 C56 20.66 56 21.32 56 22 C50 20 44 18 38 16 C38 15.34 38 14.68 38 14 C38.58007812 14.13277344 39.16015625 14.26554687 39.7578125 14.40234375 C44.15770982 15.39704001 48.53894158 16.31368332 53 17 C53 16.01 53 15.02 53 14 C36.72747909 8.60308352 19.96473864 6.07341497 3 4 C3 3.67 3 3.34 3 3 C10.55692901 2.7823453 17.82690058 3.43849077 25.3125 4.4375 C26.37017578 4.57220703 27.42785156 4.70691406 28.51757812 4.84570312 C33.04947002 5.43184687 37.5254889 6.06328653 42 7 C28.26410519 3.35947149 14.10031272 2.3678095 0 1 C0 0.67 0 0.34 0 0 Z " fill="#2A200F" transform="translate(168,338)"/>
<path d="M0 0 C2.95747404 0.96289852 5.84081346 1.92966176 8.6875 3.1875 C11.10969675 4.30389193 11.10969675 4.30389193 14 3 C16.36010742 3.62084961 16.36010742 3.62084961 19.10546875 4.65234375 C20.08837891 5.01650391 21.07128906 5.38066406 22.08398438 5.75585938 C23.10814453 6.14580078 24.13230469 6.53574219 25.1875 6.9375 C26.22326172 7.32357422 27.25902344 7.70964844 28.32617188 8.10742188 C30.88731454 9.06342444 33.44493599 10.02789257 36 11 C36 11.99 36 12.98 36 14 C39.91453958 15.27744778 43.83200421 16.54569615 47.75 17.8125 C48.84183594 18.16892578 49.93367188 18.52535156 51.05859375 18.89257812 C58.31031876 21.23115217 65.5838458 23.25161901 73 25 C71.68 25.33 70.36 25.66 69 26 C70.32 26.66 71.64 27.32 73 28 C68.71 27.67 64.42 27.34 60 27 C63.63 27.66 67.26 28.32 71 29 C71 29.33 71 29.66 71 30 C60.5977045 29.63818103 51.04118889 27.58545582 41 25 C41.33 24.34 41.66 23.68 42 23 C43.98 23.33 45.96 23.66 48 24 C46.90300781 23.66226562 45.80601562 23.32453125 44.67578125 22.9765625 C43.22132093 22.52614898 41.76689569 22.07562216 40.3125 21.625 C39.2306543 21.29242188 39.2306543 21.29242188 38.12695312 20.953125 C34.3471027 19.77947281 30.65079726 18.54096768 27 17 C27.66 16.34 28.32 15.68 29 15 C26.0745356 14.7763932 26.0745356 14.7763932 24 16 C22.22827148 15.41088867 22.22827148 15.41088867 20.12109375 14.41796875 C19.36505859 14.06283203 18.60902344 13.70769531 17.83007812 13.34179688 C17.04052734 12.96087891 16.25097656 12.57996094 15.4375 12.1875 C14.24737305 11.63352539 14.24737305 11.63352539 13.03320312 11.06835938 C7.13028274 8.26056548 7.13028274 8.26056548 6 6 C7.98 6.66 9.96 7.32 12 8 C10.82630859 7.38511719 10.82630859 7.38511719 9.62890625 6.7578125 C8.61699219 6.21898437 7.60507813 5.68015625 6.5625 5.125 C5.55316406 4.59132813 4.54382813 4.05765625 3.50390625 3.5078125 C1 2 1 2 0 0 Z " fill="#201608" transform="translate(173,368)"/>
<path d="M0 0 C5.75 1.75 5.75 1.75 8 4 C8 4.66 8 5.32 8 6 C7.01 6.495 7.01 6.495 6 7 C8.97 8.65 11.94 10.3 15 12 C13.02 12.99 13.02 12.99 11 14 C11 14.33 11 14.66 11 15 C11.97453125 14.94070313 12.9490625 14.88140625 13.953125 14.8203125 C18.57458809 14.82263484 22.45517259 16.29568274 26.75 17.875 C33.44167696 20.23184294 39.93525997 22.09745612 47 23 C46.01 22.34 45.02 21.68 44 21 C48.05606165 21.46800711 51.46588679 21.87953208 55 24 C53.68 24 52.36 24 51 24 C51 24.66 51 25.32 51 26 C55.455 26.99 55.455 26.99 60 28 C55.72424337 29.06893916 54.44075443 28.80384576 50.359375 27.56640625 C49.28945312 27.24736328 48.21953125 26.92832031 47.1171875 26.59960938 C45.45042969 26.08624023 45.45042969 26.08624023 43.75 25.5625 C42.62335938 25.22412109 41.49671875 24.88574219 40.3359375 24.53710938 C37.5544639 23.70031011 34.77613344 22.85431674 32 22 C35.04020487 23.56530994 37.96079397 24.67286141 41.25 25.625 C42.14203125 25.88539063 43.0340625 26.14578125 43.953125 26.4140625 C44.62859375 26.60742188 45.3040625 26.80078125 46 27 C44.68 27.33 43.36 27.66 42 28 C42.598125 28.28875 43.19625 28.5775 43.8125 28.875 C46 30 46 30 49 32 C43.12815387 31.41753805 38.1125283 29.74637675 32.625 27.625 C27.80420065 25.78998606 22.98467493 23.95963146 18.109375 22.2734375 C17.40006836 22.02770996 16.69076172 21.78198242 15.95996094 21.52880859 C13.79526054 20.85347382 13.79526054 20.85347382 10.625 21 C8 21 8 21 6.125 19.625 C5 18 5 18 5 16 C3.02053408 14.63636792 1.0180755 13.30581356 -1 12 C-2.875 10.25 -2.875 10.25 -4 9 C-3.67 8.34 -3.34 7.68 -3 7 C-2.34 7 -1.68 7 -1 7 C-1.020625 6.030625 -1.04125 5.06125 -1.0625 4.0625 C-1 1 -1 1 0 0 Z " fill="#635129" transform="translate(151,337)"/>
<path d="M0 0 C0.33 0 0.66 0 1 0 C0.99363525 0.65782471 0.98727051 1.31564941 0.98071289 1.9934082 C0.9364962 17.40091676 2.58341539 29.9438264 9 44 C9.33 41.69 9.66 39.38 10 37 C10.33 37 10.66 37 11 37 C11 42.28 11 47.56 11 53 C10.67 52.01 10.34 51.02 10 50 C9.01 50 8.02 50 7 50 C5.35 45.38 3.7 40.76 2 36 C-4.80513733 37.77120013 -9.52393882 39.5953421 -15 44 C-12.67040668 35.78518086 -9.84005448 27.77744324 -6.9375 19.75 C-6.0502349 17.28665505 -5.16349722 14.82312006 -4.27734375 12.359375 C-3.88796631 11.28139648 -3.49858887 10.20341797 -3.09741211 9.09277344 C-2.02617714 6.07377352 -1.00262127 3.04239759 0 0 Z " fill="#0E0C05" transform="translate(251,205)"/>
<path d="M0 0 C0.66 0.33 1.32 0.66 2 1 C-10.04162166 9.74818667 -22.87269043 15.96344199 -37 20.5625 C-38.04994141 20.90909668 -39.09988281 21.25569336 -40.18164062 21.61279297 C-46.34404632 23.52800276 -51.54559574 24.50938855 -58 24 C-60.5625 22.5 -60.5625 22.5 -62 21 C-60.68 20.67 -59.36 20.34 -58 20 C-58.66 19.34 -59.32 18.68 -60 18 C-59.34 17.67 -58.68 17.34 -58 17 C-58.33 15.68 -58.66 14.36 -59 13 C-58.34 13 -57.68 13 -57 13 C-57 12.34 -57 11.68 -57 11 C-56.05253906 11.2165625 -56.05253906 11.2165625 -55.0859375 11.4375 C-41.92196903 14.16892862 -30.69082984 13.4280953 -18 9 C-16.60394531 8.51466797 -16.60394531 8.51466797 -15.1796875 8.01953125 C-10.22675622 6.16407534 -5.93054862 3.88589565 -1.59375 0.85546875 C-1.0678125 0.57316406 -0.541875 0.29085938 0 0 Z " fill="#C37825" transform="translate(334,373)"/>
<path d="M0 0 C2.73257958 3.30409949 5.090684 6.64835953 7.3125 10.3125 C10.0532659 14.69183132 13.02295589 18.49478125 16.51171875 22.29296875 C18 24 18 24 19.5625 26.6875 C21.54760261 29.88092594 24.038025 31.69624167 27 34 C26.34 34.66 25.68 35.32 25 36 C24.67 36 24.34 36 24 36 C24.7115625 36.5878125 24.7115625 36.5878125 25.4375 37.1875 C27.36428956 39.42257589 27.5570371 41.12074113 28 44 C28.33 44.66 28.66 45.32 29 46 C28.34 46.66 27.68 47.32 27 48 C24.36 45.36 21.72 42.72 19 40 C18.34 40.66 17.68 41.32 17 42 C15.90092757 39.3308241 14.90813709 36.6999145 14.0625 33.9375 C13.01946625 31.05381846 11.82940785 29.41481836 10 27 C9.33392752 25.40142604 8.67020312 23.80179484 8.0234375 22.1953125 C6.18024992 18.24160479 3.80791581 14.57825987 1.5234375 10.8671875 C0.06143764 8.11562878 -0.6987575 6.08513875 -1 3 C-0.67 2.01 -0.34 1.02 0 0 Z " fill="#815C26" transform="translate(122,296)"/>
<path d="M0 0 C6.99142326 0.69574843 13.67822144 2.2200123 20.5 3.875 C21.58925781 4.13152344 22.67851562 4.38804687 23.80078125 4.65234375 C29.72317519 6.07744217 35.35352076 7.7112572 41 10 C40.67 10.99 40.34 11.98 40 13 C43.3 14.65 46.6 16.3 50 18 C47 19 47 19 45 19 C43.68 19.33 42.36 19.66 41 20 C44.3 21.32 47.6 22.64 51 24 C51 24.66 51 25.32 51 26 C44.89262558 24.23536928 38.92566493 22.30442525 33 20 C33 18.68 33 17.36 33 16 C31.73027344 15.731875 30.46054688 15.46375 29.15234375 15.1875 C23.88516376 14.01541058 18.73004877 12.54758318 13.5625 11 C12.66595703 10.73960937 11.76941406 10.47921875 10.84570312 10.2109375 C9.99041016 9.95570313 9.13511719 9.70046875 8.25390625 9.4375 C7.48377197 9.20933594 6.7136377 8.98117187 5.92016602 8.74609375 C4 8 4 8 2 6 C8.33654266 6.70208537 14.30812246 8.34372204 20.4375 10.0625 C21.45521484 10.34416016 22.47292969 10.62582031 23.52148438 10.91601562 C26.01542128 11.60682444 28.50818649 12.30157818 31 13 C29.02 12.34 27.04 11.68 25 11 C25 10.01 25 9.02 25 8 C16.75 5.69 8.5 3.38 0 1 C0 0.67 0 0.34 0 0 Z " fill="#120E06" transform="translate(177,352)"/>
<path d="M0 0 C6.875 1.875 6.875 1.875 8 3 C8 2.34 8 1.68 8 1 C13.54050113 1.56825653 18.03715966 3.62886517 23 6 C22.67 6.66 22.34 7.32 22 8 C22.59014893 8.23187012 23.18029785 8.46374023 23.78833008 8.70263672 C26.46449898 9.75646216 29.138507 10.81566624 31.8125 11.875 C32.74126953 12.23980469 33.67003906 12.60460937 34.62695312 12.98046875 C35.9659668 13.51220703 35.9659668 13.51220703 37.33203125 14.0546875 C38.56530151 14.54171143 38.56530151 14.54171143 39.82348633 15.03857422 C42 16 42 16 45 18 C40.00145212 17.46823959 35.71508871 16.31449185 31.015625 14.5234375 C28.81914355 13.75776905 28.81914355 13.75776905 26 15 C23.63477442 14.07796291 21.29598193 13.08301035 19 12 C22.96 13.98 26.92 15.96 31 18 C28 19 28 19 25 18 C27.64 19.32 30.28 20.64 33 22 C29 24 29 24 26.3125 23.5 C21.86030389 21.4839112 17.98288356 18.81457105 14 16 C14.33 15.01 14.66 14.02 15 13 C14.25234375 12.54109375 13.5046875 12.0821875 12.734375 11.609375 C11.74953125 10.99578125 10.7646875 10.3821875 9.75 9.75 C8.77546875 9.14671875 7.8009375 8.5434375 6.796875 7.921875 C4.18524113 6.1272886 2.07409259 4.3901448 0 2 C0 1.34 0 0.68 0 0 Z " fill="#6A5529" transform="translate(159,359)"/>
<path d="M0 0 C3.37462715 0.54723683 5.08235 1.0549 8 3 C7.01 3.33 6.02 3.66 5 4 C13.60369272 6.9375631 22.185701 9.74603165 31 12 C31 12.33 31 12.66 31 13 C29.58297487 12.85769192 28.1663904 12.71099254 26.75 12.5625 C25.56664062 12.44068359 25.56664062 12.44068359 24.359375 12.31640625 C22 12 22 12 19.765625 11.40234375 C19.18296875 11.26957031 18.6003125 11.13679688 18 11 C17.67 11.33 17.34 11.66 17 12 C17.73863281 12.12117188 18.47726563 12.24234375 19.23828125 12.3671875 C20.76001953 12.61855469 20.76001953 12.61855469 22.3125 12.875 C23.29863281 13.03742188 24.28476563 13.19984375 25.30078125 13.3671875 C27.27455892 13.70483479 29.24780087 14.05774589 31.19799805 14.51220703 C40.47744077 16.53795656 49.74486059 16.220846 59.1875 16.125 C60.91991669 16.11494761 62.65233904 16.10582576 64.38476562 16.09765625 C68.58998586 16.07582749 72.794929 16.04142299 77 16 C77 15.34 77 14.68 77 14 C79.50357861 14.8345262 81.66785852 15.79371992 84 17 C56.34874244 20.62215304 27.80995832 19.97553468 2 8 C2.66 7.34 3.32 6.68 4 6 C-0.455 4.02 -0.455 4.02 -5 2 C-2 1 -2 1 0 1 C0 0.67 0 0.34 0 0 Z " fill="#724211" transform="translate(197,381)"/>
<path d="M0 0 C2 1 2 1 2.7890625 2.96875 C3.06492188 3.8040625 3.34078125 4.639375 3.625 5.5 C6.48441893 12.86485023 11.14049227 18.88516841 18.25 22.5625 C26.86793179 25.80165367 35.70841764 24.517641 44 21 C43.4375 22.875 43.4375 22.875 42 25 C33.30925987 28.36070493 22.93251989 28.35218982 14.125 25.375 C12.40304519 24.61341579 10.69393725 23.82201916 9 23 C8.11699219 22.66871094 7.23398438 22.33742188 6.32421875 21.99609375 C3.3669446 20.60254155 1.8795042 19.70121981 0 17 C-1.09323721 11.40245601 -0.50842314 5.63659235 0 0 Z " fill="#DDB856" transform="translate(233,279)"/>
<path d="M0 0 C0 0.66 0 1.32 0 2 C0.61786377 2.10449463 1.23572754 2.20898926 1.87231445 2.31665039 C9.37559541 3.62909193 16.79060198 5.24561404 24.20776367 6.97680664 C26.19384461 7.43897642 28.181786 7.89246581 30.16992188 8.34570312 C36.64835735 9.85178419 42.85364275 11.44617685 49 14 C45.51519614 15.16160129 44.36422114 14.77692595 40.88671875 13.8203125 C39.88576172 13.55089844 38.88480469 13.28148437 37.85351562 13.00390625 C36.80873047 12.71386719 35.76394531 12.42382812 34.6875 12.125 C25.93078159 9.66670701 25.93078159 9.66670701 17 8 C20.63 8.99 24.26 9.98 28 11 C28 11.66 28 12.32 28 13 C29.32 13.33 30.64 13.66 32 14 C28.41775501 15.26543554 26.18828894 14.7150712 22.60546875 13.6015625 C21.56712891 13.28703125 20.52878906 12.9725 19.45898438 12.6484375 C18.37939453 12.31070312 17.29980469 11.97296875 16.1875 11.625 C6.73048911 8.68121086 6.73048911 8.68121086 -3 7 C-4.33917261 6.69096017 -5.67653254 6.37057089 -7 6 C-7 5.34 -7 4.68 -7 4 C-5.68 3.67 -4.36 3.34 -3 3 C-4.32 2.01 -5.64 1.02 -7 0 C-4.3333581 -1.33332095 -2.83319697 -0.67102033 0 0 Z " fill="#4E4020" transform="translate(167,346)"/>
<path d="M0 0 C1.13888672 0.34224609 1.13888672 0.34224609 2.30078125 0.69140625 C3.29464844 0.97886719 4.28851563 1.26632812 5.3125 1.5625 C6.79169922 1.99755859 6.79169922 1.99755859 8.30078125 2.44140625 C11.08028339 3.25208291 11.08028339 3.25208291 14 2 C16.41015625 2.8125 16.41015625 2.8125 19.0625 4 C21.63334946 5.18861936 21.63334946 5.18861936 24 6 C24.66 5.67 25.32 5.34 26 5 C26.66 5.66 27.32 6.32 28 7 C28.99 7.33 29.98 7.66 31 8 C33 9 33 9 35.4375 10.5 C37.98536996 12.10975995 37.98536996 12.10975995 41 13 C32.4971527 16.70636933 24.31426289 13.73841917 15.9375 10.9375 C15.07189453 10.65583984 14.20628906 10.37417969 13.31445312 10.08398438 C11.20697281 9.39701565 9.1024105 8.70229934 7 8 C7 7.34 7 6.68 7 6 C7.99 6 8.98 6 10 6 C5.05 4.02 5.05 4.02 0 2 C0 1.34 0 0.68 0 0 Z " fill="#2B1907" transform="translate(218,376)"/>
<path d="M0 0 C4.09878494 1.61023694 6.76238121 4.5779279 9.75 7.6875 C13.22791634 11.24663142 16.70377142 14.71213286 20.5 17.9375 C23.37655849 20.39456037 25.84570352 22.85831764 28 26 C28 26.66 28 27.32 28 28 C27.01 28.33 26.02 28.66 25 29 C23.10479998 27.10479998 21.59336327 25.14757658 20 23 C18.77119784 21.7058258 18.77119784 21.7058258 16 20 C16 19.34 16 18.68 16 18 C11.69677317 16.53060547 7.37702633 15.22556737 3 14 C3.33 14.66 3.66 15.32 4 16 C1.525 15.01 1.525 15.01 -1 14 C-1 14.66 -1 15.32 -1 16 C-4.91211733 14.84414715 -7.8745041 13.64465038 -11 11 C-6.25 11.875 -6.25 11.875 -4 13 C-4 12.34 -4 11.68 -4 11 C3.22857143 9.74285714 3.22857143 9.74285714 7 11 C5.6910428 7.87802522 5.6910428 7.87802522 3 6 C1.95191959 4.02477154 0.9479589 2.02518491 0 0 Z " fill="#5C401A" transform="translate(228,347)"/>
<path d="M0 0 C5.75 1.75 5.75 1.75 8 4 C8 4.66 8 5.32 8 6 C7.01 6.495 7.01 6.495 6 7 C8.97 8.65 11.94 10.3 15 12 C13.02 12.99 13.02 12.99 11 14 C11 14.66 11 15.32 11 16 C11.66 16.66 12.32 17.32 13 18 C12 20 12 20 10.125 20.8125 C8 21 8 21 6.25 19.6875 C5 18 5 18 5 16 C3.02053408 14.63636792 1.0180755 13.30581356 -1 12 C-2.875 10.25 -2.875 10.25 -4 9 C-3.67 8.34 -3.34 7.68 -3 7 C-2.34 7 -1.68 7 -1 7 C-1.020625 6.030625 -1.04125 5.06125 -1.0625 4.0625 C-1 1 -1 1 0 0 Z " fill="#7C622F" transform="translate(151,337)"/>
<path d="M0 0 C0.05411124 2.41696872 0.09372278 4.83271787 0.125 7.25 C0.15013672 8.27287109 0.15013672 8.27287109 0.17578125 9.31640625 C0.21213482 13.0608235 0.07944349 15.82352727 -2 19 C-5.81049403 18.45564371 -7.63979378 17.01129759 -10 14 C-11.125 11.1875 -11.125 11.1875 -11 8 C-8.21431153 3.62888754 -5.4241837 0 0 0 Z " fill="#0C0A04" transform="translate(252,243)"/>
<path d="M0 0 C5.8118772 1.47579081 10.87859768 4.69274555 15.984375 7.7578125 C14.994375 10.7278125 14.004375 13.6978125 12.984375 16.7578125 C9.58161068 15.62355773 8.8738672 14.67375801 6.671875 11.9453125 C1.81677882 6.25558763 -2.82663501 3.4831701 -10.015625 1.7578125 C-6.21596589 -0.77529357 -4.40760602 -0.50856993 0 0 Z " fill="#DDB857" transform="translate(271.015625,240.2421875)"/>
<path d="M0 0 C5.04385163 0.75143096 9.63433206 2.63589941 14.375 4.4375 C19.87325934 6.52082483 25.31846647 8.4762464 31 10 C31 10.66 31 11.32 31 12 C28.69 11.67 26.38 11.34 24 11 C33.57 14.3 43.14 17.6 53 21 C53 21.66 53 22.32 53 23 C44.97387849 21.4641908 37.48584127 18.84223105 29.8125 16.0625 C28.55548296 15.61482864 27.29832227 15.16756045 26.04101562 14.72070312 C20.51604638 12.73502859 15.21829876 10.7078713 10 8 C10.33 7.34 10.66 6.68 11 6 C7.37 4.35 3.74 2.7 0 1 C0 0.67 0 0.34 0 0 Z " fill="#0B0804" transform="translate(169,359)"/>
<path d="M0 0 C2.46800047 1.15173355 4.04783565 2.04783565 6 4 C5.01 4.495 5.01 4.495 4 5 C6.90377931 7.24905951 6.90377931 7.24905951 10.5625 7.5 C14 8 14 8 16 10 C15.625 12.125 15.625 12.125 15 14 C14.01 13.67 13.02 13.34 12 13 C12 12.34 12 11.68 12 11 C10.35 10.67 8.7 10.34 7 10 C11.41009417 14.85110358 16.58004353 18.348107 22 22 C20.02 22.99 20.02 22.99 18 24 C15.86741811 22.42609449 13.74425407 20.84167605 11.625 19.25 C11.02171875 18.8065625 10.4184375 18.363125 9.796875 17.90625 C6.65181146 15.52997977 4.43139361 13.69776684 3 10 C2.14101571 8.57356548 1.26591706 7.15671114 0.375 5.75 C-0.07101563 5.04359375 -0.51703125 4.3371875 -0.9765625 3.609375 C-1.31429687 3.07828125 -1.65203125 2.5471875 -2 2 C-1.34 2 -0.68 2 0 2 C0 1.34 0 0.68 0 0 Z " fill="#9D8040" transform="translate(153,350)"/>
<path d="M0 0 C1.4835001 0.42257276 2.96176424 0.86356322 4.4375 1.3125 C5.67306641 1.67794922 5.67306641 1.67794922 6.93359375 2.05078125 C7.61550781 2.36402344 8.29742187 2.67726563 9 3 C9.33 3.99 9.66 4.98 10 6 C10.66 6.66 11.32 7.32 12 8 C11.01 8.33 10.02 8.66 9 9 C9.95865509 11.33075929 9.95865509 11.33075929 13 13 C5.66258031 15.3479743 -1.34393782 15.19355213 -9 15 C-9 14.67 -9 14.34 -9 14 C-4.05 12.515 -4.05 12.515 1 11 C-1.31 10.34 -3.62 9.68 -6 9 C-4.68 7.68 -3.36 6.36 -2 5 C-1.67 5.66 -1.34 6.32 -1 7 C1.47266765 6.65555119 1.47266765 6.65555119 4 6 C4.33 5.34 4.66 4.68 5 4 C2.525 3.01 2.525 3.01 0 2 C0 1.34 0 0.68 0 0 Z " fill="#8E5113" transform="translate(267,380)"/>
<path d="M0 0 C1.32 0 2.64 0 4 0 C4.66 1.65 5.32 3.3 6 5 C6.66 3.35 7.32 1.7 8 0 C9.32 0 10.64 0 12 0 C12.66 3.96 13.32 7.92 14 12 C13.01 12 12.02 12 11 12 C10.34 10.68 9.68 9.36 9 8 C8.67 9.32 8.34 10.64 8 12 C7.01 12 6.02 12 5 12 C4.34 10.02 3.68 8.04 3 6 C2.67 7.98 2.34 9.96 2 12 C1.01 12 0.02 12 -1 12 C-1.08159574 7.83861737 -0.98248524 4.0527516 0 0 Z " fill="#DBB95E" transform="translate(238,128)"/>
<path d="M0 0 C1.32 0.33 2.64 0.66 4 1 C4.33 2.98 4.66 4.96 5 7 C5.6496875 5.7625 5.6496875 5.7625 6.3125 4.5 C6.869375 3.675 7.42625 2.85 8 2 C8.99 2 9.98 2 11 2 C11 5.96 11 9.92 11 14 C10.01 14 9.02 14 8 14 C7.67 12.35 7.34 10.7 7 9 C6.34 10.32 5.68 11.64 5 13 C4.01 13 3.02 13 2 13 C1.67 11.02 1.34 9.04 1 7 C0.34 8.32 -0.32 9.64 -1 11 C-1.99 11 -2.98 11 -4 11 C-3.52269162 9.5410574 -3.04308958 8.08286504 -2.5625 6.625 C-2.29566406 5.81289062 -2.02882813 5.00078125 -1.75390625 4.1640625 C-1 2 -1 2 0 0 Z " fill="#D4B45B" transform="translate(269,130)"/>
<path d="M0 0 C19.95903723 2.20435945 42.40046192 5.83810455 60 16 C59.34 16.66 58.68 17.32 58 18 C56.90171875 17.45472656 56.90171875 17.45472656 55.78125 16.8984375 C45.23525611 12.00208319 34.36662684 9.37814025 23.07714844 6.72900391 C18.20620098 5.57503301 13.3538847 4.34838336 8.5 3.125 C6.84384124 2.71057271 5.18760071 2.29647196 3.53125 1.8828125 C2.3659375 1.59148437 1.200625 1.30015625 0 1 C0 0.67 0 0.34 0 0 Z " fill="#040301" transform="translate(167,347)"/>
<path d="M0 0 C1.8125 1.125 1.8125 1.125 3 3 C3.39769128 6.18153026 3.55198782 8.12844028 1.8125 10.875 C-0.65507108 12.40659584 -2.14519831 12.42822025 -5 12 C-6.8125 10.875 -6.8125 10.875 -8 9 C-8.39769128 5.81846974 -8.55198782 3.87155972 -6.8125 1.125 C-4.34492892 -0.40659584 -2.85480169 -0.42822025 0 0 Z " fill="#E4C162" transform="translate(173,153)"/>
<path d="M0 0 C5.59554553 -0.29105568 9.77000574 0.62367726 14.9375 2.5 C15.62134766 2.73847656 16.30519531 2.97695313 17.00976562 3.22265625 C18.67658097 3.80545882 20.33880316 4.40137051 22 5 C21.01 5.33 20.02 5.66 19 6 C18.34 5.67 17.68 5.34 17 5 C17 5.66 17 6.32 17 7 C18.32 7.66 19.64 8.32 21 9 C19.845 8.731875 18.69 8.46375 17.5 8.1875 C15.66743366 7.78813083 13.83398056 7.39282369 12 7 C10.35837891 6.63841797 10.35837891 6.63841797 8.68359375 6.26953125 C-3.45038205 3.77694185 -15.65586367 2.86118286 -28 2 C-28 1.67 -28 1.34 -28 1 C-16.88143519 0.63479167 -6.03514084 1.76776094 5 3 C5.33 2.34 5.66 1.68 6 1 C4.02 1 2.04 1 0 1 C0 0.67 0 0.34 0 0 Z " fill="#504120" transform="translate(198,336)"/>
<path d="M0 0 C1.46067199 0.45082469 2.91848032 0.91093537 4.375 1.375 C5.18710938 1.63023437 5.99921875 1.88546875 6.8359375 2.1484375 C9 3 9 3 11 5 C10.67 5.33 10.34 5.66 10 6 C10.59014893 6.23187012 11.18029785 6.46374023 11.78833008 6.70263672 C14.46449898 7.75646216 17.138507 8.81566624 19.8125 9.875 C20.74126953 10.23980469 21.67003906 10.60460937 22.62695312 10.98046875 C23.51962891 11.33496094 24.41230469 11.68945312 25.33203125 12.0546875 C26.15421143 12.37937012 26.9763916 12.70405273 27.82348633 13.03857422 C30 14 30 14 33 16 C28.00145212 15.46823959 23.71508871 14.31449185 19.015625 12.5234375 C16.81914355 11.75776905 16.81914355 11.75776905 14 13 C11.34175909 11.7711083 8.85391409 10.49812607 6.3125 9.0625 C5.2596582 8.48338867 5.2596582 8.48338867 4.18554688 7.89257812 C2.45204328 6.93738227 0.72534991 5.96984614 -1 5 C-0.67 3.35 -0.34 1.7 0 0 Z " fill="#795F2D" transform="translate(171,361)"/>
<path d="M0 0 C4.19360449 0.67097672 7.40334352 2.8558394 11 5 C10.67 5.66 10.34 6.32 10 7 C8.02 6.34 6.04 5.68 4 5 C4.515625 5.598125 5.03125 6.19625 5.5625 6.8125 C6.036875 7.534375 6.51125 8.25625 7 9 C6.67 9.99 6.34 10.98 6 12 C3.69 11.34 1.38 10.68 -1 10 C0.32 11.32 1.64 12.64 3 14 C2.67 14.99 2.34 15.98 2 17 C1.34 17 0.68 17 0 17 C-1.54296875 15.35546875 -1.54296875 15.35546875 -3.1875 13.1875 C-3.73792969 12.47980469 -4.28835937 11.77210938 -4.85546875 11.04296875 C-5.23316406 10.36878906 -5.61085937 9.69460937 -6 9 C-5.67 8.01 -5.34 7.02 -5 6 C-4.21625 6.165 -3.4325 6.33 -2.625 6.5 C-0.11791961 7.0623707 -0.11791961 7.0623707 2 7 C1.484375 6.401875 0.96875 5.80375 0.4375 5.1875 C-0.036875 4.465625 -0.51125 3.74375 -1 3 C-0.67 2.01 -0.34 1.02 0 0 Z " fill="#E5C263" transform="translate(148,171)"/>
<path d="M0 0 C18.76355802 -0.46585385 37.36647441 2.04348622 54 11 C54 11.66 54 12.32 54 13 C50.89722641 11.97985768 47.8135108 10.93179272 44.74584961 9.80981445 C35.10776224 6.37320956 25.68124815 4.55883162 15.5625 3.1875 C14.04083342 2.97067591 12.5193472 2.75258223 10.99804688 2.53320312 C7.33398151 2.00756726 3.66781908 1.49885933 0 1 C0 0.67 0 0.34 0 0 Z " fill="#030301" transform="translate(171,341)"/>
<path d="M0 0 C1.98 0.66 3.96 1.32 6 2 C5.67 2.99 5.34 3.98 5 5 C6.65 5.33 8.3 5.66 10 6 C10.33 7.32 10.66 8.64 11 10 C6.545 10.495 6.545 10.495 2 11 C2.66 10.67 3.32 10.34 4 10 C3.01 10 2.02 10 1 10 C0.01 11.485 0.01 11.485 -1 13 C-2.875 12.75 -2.875 12.75 -5 12 C-6.25 9.9375 -6.25 9.9375 -7 8 C-4.6875 6.4375 -4.6875 6.4375 -2 5 C-1.01 5.33 -0.02 5.66 1 6 C1.15811388 2.94729537 1.15811388 2.94729537 0 0 Z " fill="#78420E" transform="translate(262,377)"/>
<path d="M0 0 C0.4125 0.38671875 0.825 0.7734375 1.25 1.171875 C9.6991099 8.7911616 17.86871694 10.93633516 29 13 C29 13.99 29 14.98 29 16 C24.59904164 16.16926763 21.87285627 16.00320152 18 14 C15.80252869 14.29805007 15.80252869 14.29805007 14 15 C13.67 14.34 13.34 13.68 13 13 C12.34 13 11.68 13 11 13 C10.67 14.98 10.34 16.96 10 19 C9.34 18.67 8.68 18.34 8 18 C7.855625 17.21625 7.71125 16.4325 7.5625 15.625 C6.94615917 12.74874279 6.22271144 11.83615293 4 10 C4.33 9.34 4.66 8.68 5 8 C5.99 8.66 6.98 9.32 8 10 C7.236875 9.236875 6.47375 8.47375 5.6875 7.6875 C4.800625 6.800625 3.91375 5.91375 3 5 C2.401875 4.443125 1.80375 3.88625 1.1875 3.3125 C0 2 0 2 0 0 Z " fill="#4E3716" transform="translate(140,321)"/>
<path d="M0 0 C4.71076417 2.29498767 4.71076417 2.29498767 6 5.4375 C6 8 6 8 4.9375 10.3125 C3 12 3 12 0 12.375 C-3 12 -3 12 -6 10 C-4.6302836 6.00499382 -2.74277578 3.19990508 0 0 Z " fill="#D4B45B" transform="translate(321,151)"/>
<path d="M0 0 C0.33 0 0.66 0 1 0 C0.55647435 8.2407065 -1.99494831 15.24784358 -4.875 22.9375 C-5.77062483 25.36239777 -6.66389818 27.78816548 -7.5546875 30.21484375 C-8.19035645 31.94130127 -8.19035645 31.94130127 -8.83886719 33.70263672 C-10.16436205 37.46675229 -11.29361691 41.25846511 -12.32861328 45.11157227 C-13 47 -13 47 -15 49 C-16.15652 45.53043999 -15.82687663 44.78147263 -14.64477539 41.43676758 C-14.32436783 40.51603958 -14.00396027 39.59531158 -13.67384338 38.64668274 C-13.14113075 37.16061775 -13.14113075 37.16061775 -12.59765625 35.64453125 C-12.24110458 34.62775803 -11.88455292 33.6109848 -11.51719666 32.56340027 C-10.3741333 29.31003246 -9.21848537 26.06129606 -8.0625 22.8125 C-7.2862777 20.61031901 -6.51087648 18.40784843 -5.73632812 16.20507812 C-3.83374063 10.79998643 -1.92079641 5.39864577 0 0 Z " fill="#C7A54E" transform="translate(250,202)"/>
<path d="M0 0 C16.26971003 -0.21358073 32.55582041 0.52821245 48 6 C48.99 6.33 49.98 6.66 51 7 C51 7.66 51 8.32 51 9 C46.52180496 8.32895548 42.2497307 7.28380957 37.875 6.125 C25.49000902 3.01412544 12.68349876 2.16834097 0 1 C0 0.67 0 0.34 0 0 Z " fill="#050402" transform="translate(168,338)"/>
<path d="M0 0 C10.42211475 -0.79088561 18.4370686 1.29651343 28 5 C24.52128379 6.15957207 23.65780355 5.77456651 20.3125 4.5625 C19.50425781 4.27503906 18.69601563 3.98757813 17.86328125 3.69140625 C17.24839844 3.46324219 16.63351563 3.23507812 16 3 C16 3.66 16 4.32 16 5 C16.62648437 5.12117188 17.25296875 5.24234375 17.8984375 5.3671875 C18.71570313 5.53476562 19.53296875 5.70234375 20.375 5.875 C21.18710938 6.03742188 21.99921875 6.19984375 22.8359375 6.3671875 C25 7 25 7 27 9 C18.61527763 7.20327378 10.31243331 5.10105676 2 3 C2 2.34 2 1.68 2 1 C1.34 0.67 0.68 0.34 0 0 Z " fill="#6A572B" transform="translate(190,349)"/>
<path d="M0 0 C1.9774481 0.04585612 1.9774481 0.04585612 3.828125 -0.25390625 C14.18398708 -1.57344351 24.61688083 -0.6059224 35 0 C35 0.33 35 0.66 35 1 C31.04 1 27.08 1 23 1 C23 1.66 23 2.32 23 3 C21.44539063 2.98259766 21.44539063 2.98259766 19.859375 2.96484375 C18.48958514 2.95546163 17.11979332 2.94636188 15.75 2.9375 C15.06808594 2.92912109 14.38617188 2.92074219 13.68359375 2.91210938 C10.28196444 2.89559661 7.26203294 3.03238574 4 4 C0.4375 4.3125 0.4375 4.3125 -3 4 C-4.9375 2 -4.9375 2 -6 0 C-3.48314464 -1.25842768 -2.63419763 -0.74086808 0 0 Z " fill="#29200F" transform="translate(162,335)"/>
<path d="M0 0 C2.76165746 3.39377016 5.40510308 6.82489144 7.875 10.4375 C8.51179687 11.34371094 9.14859375 12.24992187 9.8046875 13.18359375 C11 16 11 16 10.1953125 19.34765625 C9.80085937 20.22292969 9.40640625 21.09820312 9 22 C6.06099208 18.51673136 3.77066846 15.05261556 1.6875 11 C1.15511719 9.989375 0.62273437 8.97875 0.07421875 7.9375 C-1.10034582 4.72559979 -1.01068236 3.21527021 0 0 Z " fill="#A96017" transform="translate(122,296)"/>
<path d="M0 0 C2.73209609 0.46835933 5.06788659 1.02909425 7.625 2.125 C10.09435498 3.31560114 10.09435498 3.31560114 13 2 C13.99 2.99 14.98 3.98 16 5 C15.01 5 14.02 5 13 5 C14.98 6.32 16.96 7.64 19 9 C18.01 9.66 17.02 10.32 16 11 C10.07393534 9.66663545 4.48876974 6.55882148 -1 4 C-0.01 3.67 0.98 3.34 2 3 C2 2.34 2 1.68 2 1 C1.34 0.67 0.68 0.34 0 0 Z " fill="#493618" transform="translate(216,361)"/>
<path d="M0 0 C2.75 0.8125 2.75 0.8125 5 2 C4.67 2.66 4.34 3.32 4 4 C7.05270463 4.15811388 7.05270463 4.15811388 10 3 C10.66 3.66 11.32 4.32 12 5 C11.34 5.66 10.68 6.32 10 7 C9.67 7.66 9.34 8.32 9 9 C8.01 9 7.02 9 6 9 C6.66 9.66 7.32 10.32 8 11 C5.625 11.625 5.625 11.625 3 12 C2.34 11.34 1.68 10.68 1 10 C0.01 10 -0.98 10 -2 10 C-2.66 9.34 -3.32 8.68 -4 8 C-2.68 7.34 -1.36 6.68 0 6 C-1.32 5.01 -2.64 4.02 -4 3 C-2.3125 1.375 -2.3125 1.375 0 0 Z " fill="#5E3C13" transform="translate(243,373)"/>
<path d="M0 0 C2.475 0.495 2.475 0.495 5 1 C5.103125 1.70125 5.20625 2.4025 5.3125 3.125 C6.90380131 9.77953277 10.88563148 14.70703633 15 20 C16.00222577 21.3316611 17.00285128 22.66453296 18 24 C14.63408134 22.55746343 12.48952921 20.66735273 10 18 C9.34 18.66 8.68 19.32 8 20 C6.90092757 17.3308241 5.90813709 14.6999145 5.0625 11.9375 C4.16769799 9.00944409 4.16769799 9.00944409 2.4375 6.9375 C0.73883716 4.64799792 0.38820183 2.79505317 0 0 Z " fill="#A1702C" transform="translate(131,318)"/>
<path d="M0 0 C3.37462715 0.54723683 5.08235 1.0549 8 3 C7.01 3.33 6.02 3.66 5 4 C13.60369272 6.9375631 22.185701 9.74603165 31 12 C31 12.33 31 12.66 31 13 C22.45988044 12.55052002 14.98466367 9.85091417 7 7 C7 7.66 7 8.32 7 9 C5.35 8.67 3.7 8.34 2 8 C2.66 7.34 3.32 6.68 4 6 C-0.455 4.02 -0.455 4.02 -5 2 C-2 1 -2 1 0 1 C0 0.67 0 0.34 0 0 Z " fill="#805721" transform="translate(197,381)"/>
<path d="M0 0 C1.13888672 0.34224609 1.13888672 0.34224609 2.30078125 0.69140625 C3.29464844 0.97886719 4.28851563 1.26632812 5.3125 1.5625 C6.79169922 1.99755859 6.79169922 1.99755859 8.30078125 2.44140625 C11.08028339 3.25208291 11.08028339 3.25208291 14 2 C16.41015625 2.8125 16.41015625 2.8125 19.0625 4 C21.63334946 5.18861936 21.63334946 5.18861936 24 6 C24.66 5.67 25.32 5.34 26 5 C28 7 28 7 28 9 C26.906875 8.814375 25.81375 8.62875 24.6875 8.4375 C21.06375867 7.7421932 21.06375867 7.7421932 18 9 C16.00708008 8.47094727 16.00708008 8.47094727 13.76953125 7.56640625 C12.96708984 7.24736328 12.16464844 6.92832031 11.33789062 6.59960938 C10.50451172 6.25736328 9.67113281 5.91511719 8.8125 5.5625 C7.96751953 5.22412109 7.12253906 4.88574219 6.25195312 4.53710938 C4.16443784 3.69974448 2.08083591 2.85379803 0 2 C0 1.34 0 0.68 0 0 Z " fill="#130C04" transform="translate(218,376)"/>
<path d="M0 0 C3.96 0 7.92 0 12 0 C12 1.98 12 3.96 12 6 C11.67 6.33 11.34 6.66 11 7 C8.96994518 7 6.93935573 6.99642412 4.91015625 6.9375 C2.912423 6.86973661 2.912423 6.86973661 1 8 C1.33 6.68 1.66 5.36 2 4 C1.34 3.67 0.68 3.34 0 3 C0 2.01 0 1.02 0 0 Z " fill="#CDAD58" transform="translate(368,248)"/>
<path d="M0 0 C0 4.29 0 8.58 0 13 C-0.99 12.67 -1.98 12.34 -3 12 C-3 11.01 -3 10.02 -3 9 C-3.94875 9.20625 -4.8975 9.4125 -5.875 9.625 C-6.90625 9.74875 -7.9375 9.8725 -9 10 C-9.66 9.34 -10.32 8.68 -11 8 C-9.54712339 6.66072279 -8.08752741 5.32873153 -6.625 4 C-5.81289063 3.2575 -5.00078125 2.515 -4.1640625 1.75 C-2 0 -2 0 0 0 Z " fill="#E8C464" transform="translate(303,140)"/>
<path d="M0 0 C3.19239645 0.79809911 5.39297664 1.58637126 8.25 3.0625 C8.95640625 3.42472656 9.6628125 3.78695313 10.390625 4.16015625 C10.92171875 4.43730469 11.4528125 4.71445312 12 5 C11.67 5.99 11.34 6.98 11 8 C8.27734375 8.94921875 8.27734375 8.94921875 4.9375 9.6875 C3.28041016 10.06455078 3.28041016 10.06455078 1.58984375 10.44921875 C0.73519531 10.63097656 -0.11945313 10.81273437 -1 11 C-1 10.01 -1 9.02 -1 8 C-0.01 8 0.98 8 2 8 C1.34 5.36 0.68 2.72 0 0 Z " fill="#DCBA5F" transform="translate(368,270)"/>
<path d="M0 0 C-1 3 -1 3 -3 5 C-3 5.66 -3 6.32 -3 7 C-1.35 6.67 0.3 6.34 2 6 C2 6.99 2 7.98 2 9 C-1.3 10.32 -4.6 11.64 -8 13 C-8.33 12.01 -8.66 11.02 -9 10 C-7.68 9.67 -6.36 9.34 -5 9 C-5.33 7.68 -5.66 6.36 -6 5 C-7.65 5.33 -9.3 5.66 -11 6 C-10.67 5.01 -10.34 4.02 -10 3 C-6.5065403 1.25327015 -3.93154432 0 0 0 Z " fill="#DCBA5F" transform="translate(368,204)"/>
<path d="M0 0 C1.8125 0.0625 1.8125 0.0625 4 1 C5.81278756 4.4960903 7 7.03981755 7 11 C4 10 4 10 2 8 C1.34 8 0.68 8 0 8 C0.33 9.65 0.66 11.3 1 13 C0.01 13 -0.98 13 -2 13 C-5 6.375 -5 6.375 -5 3 C-4.01 3.33 -3.02 3.66 -2 4 C-2 4.66 -2 5.32 -2 6 C-1.01 5.34 -0.02 4.68 1 4 C0.67 2.68 0.34 1.36 0 0 Z " fill="#DDBB5F" transform="translate(192,139)"/>
<path d="M0 0 C4.59195094 1.14798774 4.87820524 1.73528573 7.25 5.5625 C7.77078125 6.38878906 8.2915625 7.21507812 8.828125 8.06640625 C9.21484375 8.70449219 9.6015625 9.34257812 10 10 C7.33333333 10 4.66666667 10 2 10 C1.67 10.66 1.34 11.32 1 12 C0.34 12 -0.32 12 -1 12 C-0.67 8.04 -0.34 4.08 0 0 Z " fill="#DFBC60" transform="translate(214,132)"/>
<path d="M0 0 C4.70588235 0.70588235 4.70588235 0.70588235 6 2 C6.04063832 3.66617115 6.042721 5.33388095 6 7 C5.34 7 4.68 7 4 7 C3.87625 6.360625 3.7525 5.72125 3.625 5.0625 C3.41875 4.381875 3.2125 3.70125 3 3 C2.34 2.67 1.68 2.34 1 2 C1.33 4.97 1.66 7.94 2 11 C-0.80362763 11.22732116 -2.46186517 11.34081872 -4.875 9.8125 C-6 8 -6 8 -5.6875 5.3125 C-5.460625 4.549375 -5.23375 3.78625 -5 3 C-4.34 3 -3.68 3 -3 3 C-2.814375 4.2065625 -2.814375 4.2065625 -2.625 5.4375 C-2.41875 6.283125 -2.2125 7.12875 -2 8 C-1.34 8.33 -0.68 8.66 0 9 C-0.185625 7.700625 -0.37125 6.40125 -0.5625 5.0625 C-0.87890625 2.84765625 -0.87890625 2.84765625 -1 1 C-0.67 0.67 -0.34 0.34 0 0 Z " fill="#E0BE60" transform="translate(351,183)"/>
<path d="M0 0 C0.804375 0.433125 0.804375 0.433125 1.625 0.875 C4.05536079 2.09360791 4.05536079 2.09360791 7 2.9375 C9.85964906 3.95029237 11.70342535 5.05674453 14 7 C13.01 7 12.02 7 11 7 C11 7.66 11 8.32 11 9 C11.99 9.33 12.98 9.66 14 10 C11.66785852 11.20628008 9.50357861 12.1654738 7 13 C6.34 12.34 5.68 11.68 5 11 C5.375 8.875 5.375 8.875 6 7 C2.535 5.02 2.535 5.02 -1 3 C-0.67 2.01 -0.34 1.02 0 0 Z " fill="#3F2F15" transform="translate(151,333)"/>
<path d="M0 0 C6.8604449 0.70695441 13.32410188 2.66382686 19.9375 4.5625 C21.67870117 5.0565332 21.67870117 5.0565332 23.45507812 5.56054688 C26.30456206 6.3696596 29.15279247 7.18291987 32 8 C31.67 8.99 31.34 9.98 31 11 C26.90408325 9.76293734 22.81078918 8.51764496 18.71972656 7.26464844 C17.3275158 6.83952114 15.93461267 6.41665443 14.54101562 5.99609375 C12.53850143 5.39134587 10.53861439 4.77852368 8.5390625 4.1640625 C7.33459473 3.79748535 6.13012695 3.4309082 4.88916016 3.05322266 C2 2 2 2 0 0 Z " fill="#060502" transform="translate(179,358)"/>
<path d="M0 0 C5.11365014 1.0681847 10.07227969 2.23107476 15 4 C14.01 4.33 13.02 4.66 12 5 C12 5.66 12 6.32 12 7 C12.61488281 7.12117188 13.22976562 7.24234375 13.86328125 7.3671875 C14.67152344 7.53476562 15.47976562 7.70234375 16.3125 7.875 C17.11300781 8.03742188 17.91351563 8.19984375 18.73828125 8.3671875 C21 9 21 9 24 11 C18.73378394 10.40421223 14.05591981 9.18691204 9.0625 7.4375 C8.37865234 7.20353516 7.69480469 6.96957031 6.99023438 6.72851562 C5.32491499 6.15788171 3.66217507 5.57972902 2 5 C2.99 4.67 3.98 4.34 5 4 C5 3.34 5 2.68 5 2 C3.35 1.67 1.7 1.34 0 1 C0 0.67 0 0.34 0 0 Z " fill="#65451B" transform="translate(204,377)"/>
<path d="M0 0 C3.54188654 1.12430857 7.08346953 2.24957039 10.625 3.375 C12.12353516 3.85066406 12.12353516 3.85066406 13.65234375 4.3359375 C18.44566599 5.85964258 23.23478738 7.38991109 28 9 C28 9.66 28 10.32 28 11 C18.59496422 9.28999349 8.57361828 6.28680914 0 2 C0 1.34 0 0.68 0 0 Z " fill="#0C0803" transform="translate(194,371)"/>
<path d="M0 0 C0.33 0.66 0.66 1.32 1 2 C-3.35590568 3.62849969 -7.23934612 4.34118446 -11.875 4.625 C-13.02742187 4.69976562 -14.17984375 4.77453125 -15.3671875 4.8515625 C-16.23601562 4.90054687 -17.10484375 4.94953125 -18 5 C-11.51168046 0.07782656 -8.23098332 -1.70831729 0 0 Z " fill="#392006" transform="translate(268,390)"/>
<path d="M0 0 C5.32749421 0.56587374 9.80549911 1.84369202 14.75 3.875 C15.40871094 4.13152344 16.06742188 4.38804687 16.74609375 4.65234375 C20.06232399 5.99094378 22.73271621 7.17435527 25 10 C21.5847973 9.38074535 18.40646528 8.53132639 15.13671875 7.37109375 C14.25048828 7.05849609 13.36425781 6.74589844 12.45117188 6.42382812 C11.0831543 5.9355957 11.0831543 5.9355957 9.6875 5.4375 C8.75615234 5.10814453 7.82480469 4.77878906 6.86523438 4.43945312 C4.57573277 3.62932179 2.28738542 2.81608317 0 2 C0 1.34 0 0.68 0 0 Z " fill="#030201" transform="translate(202,361)"/>
<path d="M0 0 C3.41782456 0.25317219 4.27744077 1.28374624 6.75 3.8125 C9 7 9 7 9 11 C8.34 11 7.68 11 7 11 C9.475 14.465 9.475 14.465 12 18 C7.79373966 16.49776416 6.26099979 13.71449966 4 10 C4.66 9.67 5.32 9.34 6 9 C4.06745228 6.9754262 2.36841312 5.57894208 0 4 C0 2.68 0 1.36 0 0 Z " fill="#8A581D" transform="translate(131,313)"/>
<path d="M0 0 C3.43595166 1.52708963 6.11912454 3.59927045 9 6 C9 4.68 9 3.36 9 2 C9.66 2 10.32 2 11 2 C10.67 4.31 10.34 6.62 10 9 C5.61031544 9 4.23094261 6.87194899 1 4 C1 5.32 1 6.64 1 8 C0.01 8 -0.98 8 -2 8 C-1.125 2.25 -1.125 2.25 0 0 Z " fill="#E2BF61" transform="translate(364,295)"/>
<path d="M0 0 C1.46067199 0.45082469 2.91848032 0.91093537 4.375 1.375 C5.18710938 1.63023437 5.99921875 1.88546875 6.8359375 2.1484375 C9 3 9 3 11 5 C10.67 5.33 10.34 5.66 10 6 C11.32 6.99 12.64 7.98 14 9 C11.25328618 8.52913477 8.89225925 7.95489922 6.3125 6.875 C5.549375 6.58625 4.78625 6.2975 4 6 C3.01 6.495 3.01 6.495 2 7 C0.4375 5.75 0.4375 5.75 -1 4 C-0.58984375 1.890625 -0.58984375 1.890625 0 0 Z " fill="#88713A" transform="translate(171,361)"/>
<path d="M0 0 C6.875 1.875 6.875 1.875 8 3 C8 2.34 8 1.68 8 1 C9.32 1 10.64 1 12 1 C13.125 5.75 13.125 5.75 12 8 C3.17647059 6.23529412 3.17647059 6.23529412 0 2 C0 1.34 0 0.68 0 0 Z " fill="#5D4E28" transform="translate(159,359)"/>
<path d="M0 0 C5.75 1.75 5.75 1.75 8 4 C8 4.66 8 5.32 8 6 C4.535 7.485 4.535 7.485 1 9 C-0.61949011 6.42786866 -1.04408751 5.32330841 -0.625 2.25 C-0.41875 1.5075 -0.2125 0.765 0 0 Z " fill="#6F5425" transform="translate(151,337)"/>
<path d="M0 0 C0.33 0 0.66 0 1 0 C1.2475 1.093125 1.495 2.18625 1.75 3.3125 C2.74838546 7.39986111 2.74838546 7.39986111 7 10 C2.38 10 -2.24 10 -7 10 C-5.68 8.68 -4.36 7.36 -3 6 C-1.93988057 4.03120677 -0.92529151 2.03564133 0 0 Z " fill="#E3BD59" transform="translate(200,255)"/>
<path d="M0 0 C1.32 0 2.64 0 4 0 C4.66 2.31 5.32 4.62 6 7 C5.01 6.67 4.02 6.34 3 6 C2.67 7.98 2.34 9.96 2 12 C1.01 12 0.02 12 -1 12 C-1.08159574 7.83861737 -0.98248524 4.0527516 0 0 Z " fill="#D2B15A" transform="translate(238,128)"/>
<path d="M0 0 C1.875 0.25 1.875 0.25 4 1 C4.6837045 2.32467746 5.34964186 3.65863633 6 5 C6.61875 5.28875 7.2375 5.5775 7.875 5.875 C10.97886464 7.51822246 12.20693774 10.05425485 14 13 C11 13 11 13 8.30078125 10.6640625 C7.29685338 9.65880492 6.3010225 8.64541032 5.3125 7.625 C4.80138672 7.11710937 4.29027344 6.60921875 3.76367188 6.0859375 C0 2.26699141 0 2.26699141 0 0 Z " fill="#BD9749" transform="translate(143,347)"/>
<path d="M0 0 C0.66 0.33 1.32 0.66 2 1 C-0.63925013 4.95887519 -2.40675015 5.02665745 -7 6 C-9.64295657 6.1301949 -12.29175297 6.17182738 -14.9375 6.125 C-15.62134766 6.11597656 -16.30519531 6.10695313 -17.00976562 6.09765625 C-18.67333287 6.07438958 -20.33671631 6.03853167 -22 6 C-22 5.67 -22 5.34 -22 5 C-20.99839844 4.89042969 -19.99679688 4.78085937 -18.96484375 4.66796875 C-12.1997678 3.87722353 -6.17906895 3.01768484 0 0 Z " fill="#C6A44D" transform="translate(275,300)"/>
<path d="M0 0 C6 2 12 4 18 6 C18 6.66 18 7.32 18 8 C18.66 8.33 19.32 8.66 20 9 C18 10 18 10 16.22827148 9.41088867 C15.53290283 9.0832251 14.83753418 8.75556152 14.12109375 8.41796875 C13.36505859 8.06283203 12.60902344 7.70769531 11.83007812 7.34179688 C11.04052734 6.96087891 10.25097656 6.57996094 9.4375 6.1875 C8.64408203 5.81818359 7.85066406 5.44886719 7.03320312 5.06835938 C1.13028274 2.26056548 1.13028274 2.26056548 0 0 Z " fill="#2A1F0E" transform="translate(179,374)"/>
<path d="M0 0 C0 0.66 0 1.32 0 2 C1.98 2 3.96 2 6 2 C5.67 2.99 5.34 3.98 5 5 C3.01432292 4.70703125 1.02864583 4.4140625 -0.95703125 4.12109375 C-3.2025342 3.86095201 -3.2025342 3.86095201 -6 5 C-6.99 4.34 -7.98 3.68 -9 3 C-9 2.34 -9 1.68 -9 1 C-5.92677456 0.08941469 -3.19902639 -0.08886184 0 0 Z " fill="#181309" transform="translate(171,340)"/>
<path d="M0 0 C2.475 0.495 2.475 0.495 5 1 C5.103125 1.70125 5.20625 2.4025 5.3125 3.125 C6.09359003 6.39137647 7.42058743 9.0471852 9 12 C5.18688695 10.5019913 3.27516449 8.37351976 1 5 C0.25 2.1875 0.25 2.1875 0 0 Z " fill="#A46A24" transform="translate(131,318)"/>
<path d="M0 0 C5.23272633 1.63958758 10.15196636 3.38952035 15 6 C15 6.33 15 6.66 15 7 C9.60959347 7.53904065 5.37128835 6.11936806 1 3 C0.67 2.01 0.34 1.02 0 0 Z " fill="#3D2C12" transform="translate(187,381)"/>
<path d="M0 0 C0.66 0.33 1.32 0.66 2 1 C-4.08194628 5.27499123 -10.27746528 8.82819865 -17 12 C-17.33 11.01 -17.66 10.02 -18 9 C-17.3709375 8.76925781 -16.741875 8.53851563 -16.09375 8.30078125 C-10.83126861 6.29564903 -6.2150248 4.08467922 -1.59375 0.85546875 C-1.0678125 0.57316406 -0.541875 0.29085938 0 0 Z " fill="#A96C25" transform="translate(334,373)"/>
<path d="M0 0 C6.46712188 1.16194152 12.09622349 3.1248748 18 6 C18 6.66 18 7.32 18 8 C12 6 6 4 0 2 C0 1.34 0 0.68 0 0 Z " fill="#080603" transform="translate(206,352)"/>
<path d="M0 0 C1.65 0 3.3 0 5 0 C5.38218767 1.65614657 5.71395102 3.32457024 6 5 C5 6 5 6 2.4375 6.0625 C1.2309375 6.0315625 1.2309375 6.0315625 0 6 C-1.125 2.25 -1.125 2.25 0 0 Z " fill="#161309" transform="translate(168,156)"/>
<path d="M0 0 C4.05606165 0.46800711 7.46588679 0.87953208 11 3 C9.68 3 8.36 3 7 3 C7 3.66 7 4.32 7 5 C11.455 5.99 11.455 5.99 16 7 C11.87585243 8.03103689 11.0158858 7.94701684 7.25 6.5625 C6.45078125 6.27503906 5.6515625 5.98757813 4.828125 5.69140625 C3.92320312 5.34916016 3.92320312 5.34916016 3 5 C3 4.01 3 3.02 3 2 C2.01 1.34 1.02 0.68 0 0 Z " fill="#534220" transform="translate(195,358)"/>
<path d="M0 0 C1.34173403 0.92543709 2.67320159 1.86577405 4 2.8125 C5.11375 3.59560547 5.11375 3.59560547 6.25 4.39453125 C6.8275 4.92433594 7.405 5.45414062 8 6 C8 6.99 8 7.98 8 9 C7.01 8.34 6.02 7.68 5 7 C4.01 7 3.02 7 2 7 C-0.1875 5.125 -0.1875 5.125 -2 3 C-2 2.34 -2 1.68 -2 1 C-1.34 0.67 -0.68 0.34 0 0 Z " fill="#946526" transform="translate(140,323)"/>
<path d="M0 0 C0.9075 0.391875 1.815 0.78375 2.75 1.1875 C2.75 1.8475 2.75 2.5075 2.75 3.1875 C3.41 3.8475 4.07 4.5075 4.75 5.1875 C2.375 5.8125 2.375 5.8125 -0.25 6.1875 C-0.91 5.5275 -1.57 4.8675 -2.25 4.1875 C-3.24 4.1875 -4.23 4.1875 -5.25 4.1875 C-5.91 3.5275 -6.57 2.8675 -7.25 2.1875 C-4.52596974 -0.53653026 -3.86366821 -0.96591705 0 0 Z " fill="#724615" transform="translate(246.25,378.8125)"/>
<path d="M0 0 C0 0.66 0 1.32 0 2 C-4.1196377 3.29243536 -7.66831683 4.26252625 -12 4 C-11.67 3.01 -11.34 2.02 -11 1 C-9.2578125 0.234375 -9.2578125 0.234375 -7.125 -0.25 C-6.07699219 -0.50523437 -6.07699219 -0.50523437 -5.0078125 -0.765625 C-3 -1 -3 -1 0 0 Z " fill="#CEAE58" transform="translate(377,229)"/>
<path d="M0 0 C2.31 0 4.62 0 7 0 C7 0.99 7 1.98 7 3 C3.7 4.32 0.4 5.64 -3 7 C-3.33 6.01 -3.66 5.02 -4 4 C-2.68 3.67 -1.36 3.34 0 3 C0 2.01 0 1.02 0 0 Z " fill="#E5C262" transform="translate(363,210)"/>
<path d="M0 0 C0.33 0.99 0.66 1.98 1 3 C3.38564077 2.42415568 5.66682784 1.77772405 8 1 C7.125 4.875 7.125 4.875 6 6 C1.96839809 6.26293056 0.44107266 6.29404844 -3 4 C-2.67 3.01 -2.34 2.02 -2 1 C-1.34 0.67 -0.68 0.34 0 0 Z " fill="#E7C363" transform="translate(318,157)"/>
<path d="M0 0 C2.31 1.65 4.62 3.3 7 5 C6 6 5 7 4 8 C3.67 8.66 3.34 9.32 3 10 C1.35 10 -0.3 10 -2 10 C-1.34 8.35 -0.68 6.7 0 5 C0.66 5 1.32 5 2 5 C1.34 3.35 0.68 1.7 0 0 Z " fill="#462B0D" transform="translate(254,370)"/>
<path d="M0 0 C0.99 0.33 1.98 0.66 3 1 C3 1.66 3 2.32 3 3 C3.99 3 4.98 3 6 3 C6 5.31 6 7.62 6 10 C5.01 10 4.02 10 3 10 C0 3.375 0 3.375 0 0 Z " fill="#E5C262" transform="translate(187,142)"/>
<path d="M0 0 C4.23169259 0.37615045 6.8083482 1.17661571 10 4 C6.92677456 4.91058531 4.19902639 5.08886184 1 5 C0.34 3.68 -0.32 2.36 -1 1 C-0.67 0.67 -0.34 0.34 0 0 Z " fill="#6C5528" transform="translate(156,346)"/>
<path d="M0 0 C4.8274799 1.41292095 8.7162359 3.42974154 13 6 C12.01 6.66 11.02 7.32 10 8 C6.8125 7.125 6.8125 7.125 4 6 C4.33 5.34 4.66 4.68 5 4 C4.175 3.525625 3.35 3.05125 2.5 2.5625 C1.675 2.046875 0.85 1.53125 0 1 C0 0.67 0 0.34 0 0 Z " fill="#221607" transform="translate(231,373)"/>
<path d="M0 0 C3.80635497 3.20760251 7.54563567 6.40746109 11 10 C7.48224803 10 6.58957285 9.29360188 3.8125 7.25 C3.09707031 6.73953125 2.38164062 6.2290625 1.64453125 5.703125 C0 4 0 4 0 0 Z " fill="#B28238" transform="translate(140,335)"/>
<path d="M0 0 C0.556875 0.309375 1.11375 0.61875 1.6875 0.9375 C4.12540433 2.05761821 6.36224186 2.56037364 9 3 C7.66666667 5.66666667 6.33333333 8.33333333 5 11 C4.731875 10.071875 4.46375 9.14375 4.1875 8.1875 C3.06289965 5.1688359 2.29293427 4.0844857 0 2 C0 1.34 0 0.68 0 0 Z " fill="#62461D" transform="translate(144,329)"/>
<path d="M0 0 C0.99 0 1.98 0 3 0 C3 3.96 3 7.92 3 12 C2.34 12 1.68 12 1 12 C0.45533613 7.915021 0 4.1274515 0 0 Z " fill="#F2CD68" transform="translate(277,132)"/>
<path d="M0 0 C5.75 -0.125 5.75 -0.125 8 1 C8 1.66 8 2.32 8 3 C10.31 3.66 12.62 4.32 15 5 C14.67 5.66 14.34 6.32 14 7 C9.38 5.02 4.76 3.04 0 1 C0 0.67 0 0.34 0 0 Z " fill="#271F0F" transform="translate(179,366)"/>
<path d="M0 0 C2.02045442 0.60183749 4.02111039 1.27306096 6 2 C6.33 2.66 6.66 3.32 7 4 C5.68 3.67 4.36 3.34 3 3 C3.99 4.32 4.98 5.64 6 7 C2.08788267 5.84414715 -0.8745041 4.64465038 -4 2 C-2.68 2 -1.36 2 0 2 C0 1.34 0 0.68 0 0 Z " fill="#68552A" transform="translate(219,345)"/>
<path d="M0 0 C0.99 0.33 1.98 0.66 3 1 C3 2.32 3 3.64 3 5 C1.68 4.67 0.36 4.34 -1 4 C-1.66 5.32 -2.32 6.64 -3 8 C-3.99 7.34 -4.98 6.68 -6 6 C-4.02 4.02 -2.04 2.04 0 0 Z " fill="#A98F48" transform="translate(298,142)"/>
<path d="M0 0 C0.8353125 0.7115625 0.8353125 0.7115625 1.6875 1.4375 C-6.50506018 1.9101477 -6.50506018 1.9101477 -9.875 -0.0625 C-10.349375 -0.5575 -10.82375 -1.0525 -11.3125 -1.5625 C-6.97413575 -3.00862142 -3.79756331 -2.56592115 0 0 Z " fill="#B26C20" transform="translate(283.3125,395.5625)"/>
<path d="M0 0 C3.3 0.99 6.6 1.98 10 3 C10 3.66 10 4.32 10 5 C2.25 4.125 2.25 4.125 0 3 C0 2.01 0 1.02 0 0 Z " fill="#38250D" transform="translate(204,388)"/>
<path d="M0 0 C4.75 0.75 4.75 0.75 7 3 C6.34 3 5.68 3 5 3 C5 3.66 5 4.32 5 5 C6.32 5.66 7.64 6.32 9 7 C4.61110675 6.33501617 1.0188515 4.81242323 -3 3 C0 2 0 2 2 2 C1.34 1.34 0.68 0.68 0 0 Z " fill="#5A401A" transform="translate(219,369)"/>
<path d="M0 0 C0 0.66 0 1.32 0 2 C-1.43836751 1.88541307 -2.87570966 1.75790884 -4.3125 1.625 C-5.11300781 1.55539062 -5.91351563 1.48578125 -6.73828125 1.4140625 C-9 1 -9 1 -12 -1 C-7.84708071 -2.43754898 -3.91862041 -1.95931021 0 0 Z " fill="#271F0E" transform="translate(218,362)"/>
<path d="M0 0 C4.455 0.99 4.455 0.99 9 2 C9.33 3.32 9.66 4.64 10 6 C6.51329166 4.8905928 3.22515763 3.73662334 0 2 C0 1.34 0 0.68 0 0 Z " fill="#19150A" transform="translate(215,341)"/>
<path d="M0 0 C1.98 0 3.96 0 6 0 C5.67 0.99 5.34 1.98 5 3 C6.98 3 8.96 3 11 3 C7.00439392 5.83022097 3.57262677 4.76210446 -1 4 C-0.34 3.34 0.32 2.68 1 2 C0.67 1.34 0.34 0.68 0 0 Z " fill="#B2691D" transform="translate(275,388)"/>
<path d="M0 0 C1.43793392 0.31049726 2.8753318 0.6234776 4.3125 0.9375 C5.11300781 1.11152344 5.91351563 1.28554688 6.73828125 1.46484375 C9 2 9 2 12 3 C12 3.66 12 4.32 12 5 C7.6822542 4.49202991 3.96697886 3.80317221 0 2 C0 1.34 0 0.68 0 0 Z " fill="#0B0803" transform="translate(203,371)"/>
<path d="M0 0 C1.4835001 0.42257276 2.96176424 0.86356322 4.4375 1.3125 C5.67306641 1.67794922 5.67306641 1.67794922 6.93359375 2.05078125 C7.61550781 2.36402344 8.29742187 2.67726563 9 3 C9.33 3.99 9.66 4.98 10 6 C9.01 6.33 8.02 6.66 7 7 C6.01 6.34 5.02 5.68 4 5 C4.33 4.67 4.66 4.34 5 4 C2.525 3.01 2.525 3.01 0 2 C0 1.34 0 0.68 0 0 Z " fill="#A75B13" transform="translate(267,380)"/>
<path d="M0 0 C0.78375 0.185625 1.5675 0.37125 2.375 0.5625 C4.97089775 1.25962266 4.97089775 1.25962266 7 0 C9.03144641 0.93446535 11.03533587 1.93224776 13 3 C11.375 4.125 11.375 4.125 9 5 C5.12990885 4.13120403 2.53341263 3.09639322 0 0 Z " fill="#8F6C31" transform="translate(179,378)"/>
<path d="M0 0 C1.32 0.33 2.64 0.66 4 1 C3.67 1.99 3.34 2.98 3 4 C0.93359375 4.73046875 0.93359375 4.73046875 -1.5625 5.1875 C-2.38878906 5.34605469 -3.21507812 5.50460937 -4.06640625 5.66796875 C-5.02353516 5.83232422 -5.02353516 5.83232422 -6 6 C-5.67 5.01 -5.34 4.02 -5 3 C-3.35 3 -1.7 3 0 3 C0 2.01 0 1.02 0 0 Z " fill="#E4C162" transform="translate(376,274)"/>
<path d="M0 0 C4.75 0.875 4.75 0.875 7 2 C7 1.34 7 0.68 7 0 C9.475 0.99 9.475 0.99 12 2 C10 4 10 4 8 5 C6.0546875 4.22265625 6.0546875 4.22265625 3.875 3.0625 C3.15054688 2.68222656 2.42609375 2.30195313 1.6796875 1.91015625 C1.12539062 1.60980469 0.57109375 1.30945313 0 1 C0 0.67 0 0.34 0 0 Z " fill="#664E23" transform="translate(217,358)"/>
<path d="M0 0 C3.81684226 1.55500981 6.19195732 4.03595495 9 7 C8.67 7.99 8.34 8.98 8 10 C3.92236229 7.13463296 1.97322935 4.56958375 0 0 Z " fill="#4D3C1C" transform="translate(228,347)"/>
<path d="M0 0 C3.63 0.33 7.26 0.66 11 1 C11 1.99 11 2.98 11 4 C4.375 4.25 4.375 4.25 1 2 C0.67 1.34 0.34 0.68 0 0 Z " fill="#694E23" transform="translate(158,333)"/>
<path d="M0 0 C0.66 0.33 1.32 0.66 2 1 C2 1.99 2 2.98 2 4 C1.01 4.66 0.02 5.32 -1 6 C-1.99 5.67 -2.98 5.34 -4 5 C-4.33 4.34 -4.66 3.68 -5 3 C-2.625 1.4375 -2.625 1.4375 0 0 Z " fill="#824810" transform="translate(260,382)"/>
<path d="M0 0 C-0.99 0.495 -0.99 0.495 -2 1 C-2.65213292 3.02463255 -2.65213292 3.02463255 -3 5 C-4.65 4.01 -6.3 3.02 -8 2 C-5.14066998 -0.85933002 -3.8625627 -1.2875209 0 0 Z " fill="#472F11" transform="translate(250,369)"/>
<path d="M0 0 C1.60517097 0.08733576 3.20921662 0.19552224 4.8125 0.3125 C6.15248047 0.39951172 6.15248047 0.39951172 7.51953125 0.48828125 C10.30604 1.06313581 11.24135754 1.8206856 13 4 C10.31143576 5.00821159 8.58296785 5.22736824 5.88671875 4.17578125 C3.89205069 3.16604698 1.9353228 2.11893353 0 1 C0 0.67 0 0.34 0 0 Z " fill="#6A4B1F" transform="translate(222,367)"/>
<path d="M0 0 C5.66153846 1.47692308 5.66153846 1.47692308 7.375 4.125 C7.684375 5.053125 7.684375 5.053125 8 6 C7.01 6.33 6.02 6.66 5 7 C3.29115995 5.37660195 1.62553283 3.70680947 0 2 C0 1.34 0 0.68 0 0 Z " fill="#8C6B31" transform="translate(147,344)"/>
<path d="M0 0 C1.875 0.625 1.875 0.625 4 2 C5.25 5.125 5.25 5.125 6 8 C3.69 6.35 1.38 4.7 -1 3 C-0.67 2.01 -0.34 1.02 0 0 Z " fill="#D09640" transform="translate(137,337)"/>
<path d="M0 0 C0.5775 0.61875 1.155 1.2375 1.75 1.875 C3.80249821 3.81347053 5.43366582 4.90014249 8 6 C7.67 6.66 7.34 7.32 7 8 C6.34 7.67 5.68 7.34 5 7 C4.67 7.66 4.34 8.32 4 9 C0 3.375 0 3.375 0 0 Z " fill="#9F5914" transform="translate(123,303)"/>
<path d="M0 0 C0.99 0.66 1.98 1.32 3 2 C2.030625 2.61875 1.06125 3.2375 0.0625 3.875 C-3.02835362 5.65678846 -3.02835362 5.65678846 -4 8 C-5.32 7.67 -6.64 7.34 -8 7 C-7.34 7 -6.68 7 -6 7 C-5.67 6.01 -5.34 5.02 -5 4 C-2.4375 2.8125 -2.4375 2.8125 0 2 C0 1.34 0 0.68 0 0 Z " fill="#5C310A" transform="translate(265,382)"/>
<path d="M0 0 C3.68754757 0.49831724 5.60490662 1.10067643 8 4 C6.25 4.6875 6.25 4.6875 4 5 C1.75 3.6875 1.75 3.6875 0 2 C0 1.34 0 0.68 0 0 Z " fill="#887038" transform="translate(167,369)"/>
<path d="M0 0 C8.57142857 -0.28571429 8.57142857 -0.28571429 12 2 C12 2.33 12 2.66 12 3 C10.37419034 2.88601335 8.74932843 2.75844341 7.125 2.625 C6.22007812 2.55539062 5.31515625 2.48578125 4.3828125 2.4140625 C2 2 2 2 0 0 Z " fill="#090804" transform="translate(190,349)"/>
<path d="M0 0 C2.475 0.495 2.475 0.495 5 1 C5 1.66 5 2.32 5 3 C3.35 3 1.7 3 0 3 C0 2.01 0 1.02 0 0 Z M-4 4 C-3.01 4 -2.02 4 -1 4 C-1.33 4.99 -1.66 5.98 -2 7 C-2.66 7 -3.32 7 -4 7 C-4 6.01 -4 5.02 -4 4 Z " fill="#9F8744" transform="translate(371,274)"/>
<path d="M0 0 C0.99 0.33 1.98 0.66 3 1 C2.67 2.32 2.34 3.64 2 5 C0.68 5.33 -0.64 5.66 -2 6 C-2 3 -2 3 0 0 Z " fill="#0F0D06" transform="translate(321,155)"/>
<path d="M0 0 C0.33 0.66 0.66 1.32 1 2 C-2.3 2.33 -5.6 2.66 -9 3 C-8.67 2.01 -8.34 1.02 -8 0 C-5.08447442 -1.20642438 -2.93446575 -1.11307322 0 0 Z " fill="#7A420D" transform="translate(257,391)"/>
<path d="M0 0 C2.88575819 0.39803561 3.82189513 0.79009069 5.75 3.0625 C6.1625 3.701875 6.575 4.34125 7 5 C5.68 5.33 4.36 5.66 3 6 C0 1.125 0 1.125 0 0 Z " fill="#B18840" transform="translate(146,347)"/>
<path d="M0 0 C1.875 0.25 1.875 0.25 4 1 C5.25 3.0625 5.25 3.0625 6 5 C5.01 5.33 4.02 5.66 3 6 C0 2.25 0 2.25 0 0 Z " fill="#CFAF59" transform="translate(145,182)"/>
<path d="M0 0 C0.66 0.33 1.32 0.66 2 1 C0.125 5.75 0.125 5.75 -1 8 C-1.66 8 -2.32 8 -3 8 C-3 6.02 -3 4.04 -3 2 C-2.34 2 -1.68 2 -1 2 C-0.67 1.34 -0.34 0.68 0 0 Z " fill="#A68D47" transform="translate(216,136)"/>
<path d="M0 0 C1.32 0.66 2.64 1.32 4 2 C4 2.99 4 3.98 4 5 C1.69 4.34 -0.62 3.68 -3 3 C-2.01 2.01 -1.02 1.02 0 0 Z " fill="#D6B55C" transform="translate(219,138)"/>
<path d="M0 0 C4.75 0.75 4.75 0.75 7 3 C6.625 5.125 6.625 5.125 6 7 C5.01 6.67 4.02 6.34 3 6 C3 4.68 3 3.36 3 2 C2.01 1.67 1.02 1.34 0 1 C0 0.67 0 0.34 0 0 Z " fill="#8E763C" transform="translate(162,357)"/>
<path d="M0 0 C2.375 -0.125 2.375 -0.125 5 0 C7 2 7 2 7.125 4.625 C7.08375 5.40875 7.0425 6.1925 7 7 C6.34 7 5.68 7 5 7 C4.731875 6.21625 4.46375 5.4325 4.1875 4.625 C3.15185568 1.71885077 3.15185568 1.71885077 0 0 Z " fill="#F5CF69" transform="translate(169,154)"/>
<path d="M0 0 C2.475 0.99 2.475 0.99 5 2 C3 4 3 4 1 5 C-0.32 4.01 -1.64 3.02 -3 2 C-2.01 2 -1.02 2 0 2 C0 1.34 0 0.68 0 0 Z " fill="#685126" transform="translate(221,353)"/>
<path d="M0 0 C2.64 0.33 5.28 0.66 8 1 C7.67 1.99 7.34 2.98 7 4 C4.69 3.34 2.38 2.68 0 2 C0 1.34 0 0.68 0 0 Z " fill="#352B15" transform="translate(170,349)"/>
<path d="M0 0 C0.33 0.66 0.66 1.32 1 2 C1.66 2.33 2.32 2.66 3 3 C-1.455 3.495 -1.455 3.495 -6 4 C-6 3.01 -6 2.02 -6 1 C-4.02 0.67 -2.04 0.34 0 0 Z " fill="#352A14" transform="translate(166,349)"/>
<path d="M0 0 C1.2065625 0.0309375 1.2065625 0.0309375 2.4375 0.0625 C2.1075 1.0525 1.7775 2.0425 1.4375 3.0625 C0.1175 3.0625 -1.2025 3.0625 -2.5625 3.0625 C-2.8925 3.7225 -3.2225 4.3825 -3.5625 5.0625 C-4.2225 5.0625 -4.8825 5.0625 -5.5625 5.0625 C-3.15007962 0.07683121 -3.15007962 0.07683121 0 0 Z " fill="#CCAC57" transform="translate(170.5625,152.9375)"/>
<path d="M0 0 C1.875 0.125 1.875 0.125 4 1 C5.25 4.0625 5.25 4.0625 6 7 C3.95880212 5.38405168 1.95927063 3.7143618 0 2 C0 1.34 0 0.68 0 0 Z " fill="#CD9D48" transform="translate(143,347)"/>
<path d="M0 0 C3.34998521 1.11666174 3.79340222 1.74694925 5.6875 4.5625 C6.12449219 5.20316406 6.56148437 5.84382813 7.01171875 6.50390625 C7.33785156 6.99761719 7.66398438 7.49132812 8 8 C4.63820226 6.55922954 2.40843732 4.75249979 0 2 C0 1.34 0 0.68 0 0 Z " fill="#966C2E" transform="translate(141,334)"/>
<path d="M0 0 C0 0.66 0 1.32 0 2 C-1.98 2.66 -3.96 3.32 -6 4 C-6.33 3.01 -6.66 2.02 -7 1 C-4 0 -4 0 0 0 Z " fill="#CFAC51" transform="translate(252,241)"/>
</svg>
